<?xml version="1.0" encoding="UTF-8" standalone="no"?>
<svg
   xmlns:dc="http://purl.org/dc/elements/1.1/"
   xmlns:cc="http://creativecommons.org/ns#"
   xmlns:rdf="http://www.w3.org/1999/02/22-rdf-syntax-ns#"
   xmlns:svg="http://www.w3.org/2000/svg"
   xmlns="http://www.w3.org/2000/svg"
   xml:space="preserve"
   enable-background="new 0 0 1280 531"
   viewBox="0 0 1280 531"
   height="531px"
   width="1280px"
   y="0px"
   x="0px"
   id="Layer_1"
   version="1.1"><metadata
   id="metadata629"><rdf:RDF><cc:Work
       rdf:about=""><dc:format>image/svg+xml</dc:format><dc:type
         rdf:resource="http://purl.org/dc/dcmitype/StillImage" /><dc:title></dc:title></cc:Work></rdf:RDF></metadata><defs
   id="defs627" />
<g
   id="layer1">
	
		<path
   d="   M363.557,178.374c0,24.575-51.554,44.503-115.186,44.525c-63.632,0.022-115.277-19.872-115.39-44.446   c-0.112-24.575,51.35-44.538,114.982-44.604c63.632-0.065,115.368,19.792,115.593,44.367"
   stroke-opacity="0"
   stroke-width="0.1"
   stroke="#4E4E4E"
   fill="none"
   id="path14" />
	
		<path
   d="   M58.539,106.989c0,69.042,0,138.085,11.451,196.975c11.45,58.891,34.349,107.627,67.465,146.531   c33.115,38.906,76.953,68.317,121.573,65.68c44.62-2.637,89.828-36.816,120.669-76.966c30.839-40.149,47.092-86.104,55.402-131.82   c8.311-45.719,8.68-91.208,9.049-136.694"
   stroke-linejoin="round"
   stroke-linecap="round"
   stroke-width="6.2492"
   stroke="#4E4E4E"
   fill="none"
   id="path4600" />
	
		<ellipse
   ry="91.866"
   rx="192.222"
   cy="105.527"
   cx="250.79"
   stroke-linejoin="round"
   stroke-width="6.2492"
   stroke="#4E4E4E"
   fill="none"
   id="path4550" />
</g>
<g
   id="g490">
	<path
   id="path476"
   d="M538.312,55.6h13.72l39.2,99.4h-16.52l-10.5-27.02h-38.36L515.492,155h-16.66L538.312,55.6z    M561.131,116.36l-15.96-42.7l-16.52,42.7H561.131z"
   fill="#4E4E4E" />
	<path
   id="path478"
   d="M713.59,155h-15.4v-41.02c0-6.812-1.12-11.806-3.359-14.98c-2.24-3.172-5.509-4.76-9.801-4.76   c-4.388,0-8.378,1.61-11.97,4.83c-3.594,3.22-6.184,7.398-7.77,12.53V155h-15.4v-41.02c0-6.906-1.12-11.922-3.36-15.05   c-2.239-3.126-5.459-4.69-9.66-4.69c-4.388,0-8.4,1.588-12.04,4.76c-3.64,3.174-6.254,7.328-7.84,12.46V155h-15.4V81.78h14v14.7   c2.892-5.132,6.696-9.076,11.41-11.83c4.712-2.752,10.102-4.13,16.17-4.13c6.065,0,10.85,1.588,14.35,4.76   c3.5,3.174,5.67,7.14,6.51,11.9c3.08-5.412,6.952-9.542,11.62-12.39c4.666-2.846,9.986-4.27,15.96-4.27   c4.292,0,7.862,0.818,10.71,2.45c2.847,1.634,5.11,3.804,6.79,6.51c1.681,2.708,2.846,5.858,3.5,9.45   c0.652,3.594,0.98,7.398,0.98,11.41V155z"
   fill="#4E4E4E" />
	<path
   id="path480"
   d="M772.948,156.4c-5.88,0-11.061-1.4-15.54-4.2c-4.48-2.8-8.028-6.44-10.641-10.92v43.54h-15.399V81.78h13.58   v13.16c2.8-4.386,6.416-7.886,10.85-10.5c4.432-2.612,9.45-3.92,15.05-3.92c5.04,0,9.66,1.028,13.86,3.08   c4.2,2.054,7.84,4.808,10.92,8.26c3.08,3.454,5.481,7.468,7.21,12.04c1.726,4.574,2.59,9.38,2.59,14.42   c0,5.32-0.794,10.29-2.38,14.91c-1.588,4.62-3.828,8.634-6.72,12.04c-2.895,3.408-6.324,6.114-10.29,8.12   C782.069,155.396,777.708,156.4,772.948,156.4z M767.908,143.24c3.266,0,6.229-0.7,8.89-2.1s4.946-3.266,6.86-5.6   c1.911-2.332,3.382-4.992,4.41-7.98c1.025-2.986,1.54-6.066,1.54-9.24c0-3.36-0.585-6.532-1.75-9.52   c-1.169-2.986-2.755-5.6-4.761-7.84c-2.008-2.24-4.41-4.012-7.21-5.32c-2.8-1.306-5.834-1.96-9.1-1.96   c-1.96,0-4.015,0.374-6.16,1.12c-2.148,0.749-4.154,1.774-6.02,3.08c-1.868,1.308-3.5,2.824-4.9,4.55   c-1.4,1.728-2.38,3.618-2.94,5.67v19.18c0.933,2.24,2.146,4.34,3.641,6.3c1.491,1.96,3.149,3.64,4.97,5.04s3.802,2.52,5.95,3.36   C763.474,142.82,765.668,143.24,767.908,143.24z"
   fill="#4E4E4E" />
	<path
   id="path482"
   d="M879.348,78.98c-0.934-1.026-2.288-2.122-4.06-3.29c-1.774-1.166-3.851-2.262-6.23-3.29   c-2.38-1.026-4.994-1.866-7.84-2.52c-2.849-0.652-5.765-0.98-8.75-0.98c-6.628,0-11.504,1.214-14.63,3.64   c-3.128,2.428-4.69,5.788-4.69,10.08c0,2.428,0.49,4.41,1.47,5.95c0.98,1.54,2.496,2.894,4.551,4.06   c2.052,1.168,4.62,2.194,7.699,3.08c3.08,0.888,6.672,1.844,10.78,2.87c5.04,1.214,9.59,2.568,13.65,4.06   c4.06,1.494,7.49,3.314,10.29,5.46c2.8,2.148,4.97,4.784,6.51,7.91c1.54,3.128,2.31,6.93,2.31,11.41c0,5.04-0.958,9.38-2.869,13.02   c-1.914,3.64-4.528,6.604-7.841,8.89c-3.313,2.288-7.164,3.968-11.55,5.04c-4.388,1.072-9.1,1.61-14.14,1.61   c-7.561,0-14.864-1.142-21.91-3.43c-7.048-2.286-13.418-5.622-19.11-10.01l7.141-13.44c1.212,1.214,2.962,2.568,5.25,4.06   c2.286,1.494,4.945,2.87,7.979,4.13c3.032,1.26,6.322,2.334,9.87,3.22c3.546,0.888,7.232,1.33,11.061,1.33   c6.159,0,10.92-1.072,14.279-3.22c3.36-2.146,5.04-5.32,5.04-9.52c0-2.52-0.63-4.62-1.89-6.3c-1.26-1.68-3.059-3.15-5.39-4.41   c-2.335-1.26-5.181-2.402-8.54-3.43c-3.36-1.026-7.188-2.1-11.48-3.22c-4.948-1.306-9.264-2.682-12.95-4.13   c-3.688-1.446-6.744-3.196-9.17-5.25c-2.428-2.052-4.27-4.456-5.53-7.21c-1.26-2.752-1.89-6.09-1.89-10.01   c0-4.852,0.932-9.17,2.8-12.95c1.866-3.78,4.41-6.952,7.63-9.52c3.221-2.566,7.022-4.502,11.41-5.81   c4.386-1.306,9.146-1.96,14.28-1.96c6.72,0,12.926,1.074,18.62,3.22c5.691,2.148,10.686,4.808,14.979,7.98L879.348,78.98z"
   fill="#4E4E4E" />
	<path
   id="path484"
   d="M899.367,118.32c0-5.132,0.886-9.986,2.659-14.56c1.772-4.572,4.316-8.586,7.63-12.04   c3.313-3.452,7.303-6.182,11.971-8.19c4.666-2.006,9.892-3.01,15.68-3.01c7.561,0,14.07,1.658,19.53,4.97   c5.46,3.314,9.542,7.724,12.25,13.23l-14.98,4.76c-1.773-3.08-4.153-5.482-7.14-7.21c-2.988-1.726-6.3-2.59-9.94-2.59   c-3.08,0-5.949,0.608-8.609,1.82c-2.66,1.214-4.971,2.918-6.931,5.11c-1.96,2.194-3.5,4.784-4.619,7.77   c-1.12,2.988-1.681,6.3-1.681,9.94c0,3.548,0.582,6.838,1.75,9.87c1.166,3.034,2.752,5.67,4.76,7.91c2.007,2.24,4.341,3.99,7,5.25   c2.66,1.26,5.482,1.89,8.471,1.89c1.865,0,3.731-0.256,5.6-0.77c1.866-0.512,3.57-1.236,5.11-2.17   c1.54-0.932,2.892-2.006,4.06-3.22c1.166-1.212,2.03-2.52,2.59-3.92l15.12,4.48c-2.428,5.508-6.488,10.01-12.18,13.51   c-5.694,3.5-12.414,5.25-20.16,5.25c-5.694,0-10.874-1.028-15.54-3.08c-4.668-2.052-8.658-4.83-11.97-8.33   c-3.314-3.5-5.88-7.536-7.7-12.11C900.276,128.308,899.367,123.454,899.367,118.32z"
   fill="#4E4E4E" />
	<path
   id="path486"
   d="M1001.846,156.4c-3.548,0-6.838-0.584-9.87-1.75c-3.034-1.166-5.648-2.776-7.84-4.83   c-2.194-2.052-3.92-4.48-5.181-7.28c-1.26-2.8-1.89-5.832-1.89-9.1c0-3.452,0.746-6.58,2.24-9.38c1.492-2.8,3.616-5.226,6.37-7.28   c2.752-2.052,6.02-3.64,9.8-4.76s7.956-1.68,12.53-1.68c3.451,0,6.859,0.304,10.22,0.91c3.36,0.608,6.392,1.424,9.1,2.45v-5.04   c0-5.412-1.54-9.636-4.62-12.67c-3.079-3.032-7.514-4.55-13.3-4.55c-3.92,0-7.77,0.724-11.55,2.17   c-3.78,1.448-7.678,3.524-11.69,6.23l-4.76-9.8c9.426-6.346,19.227-9.52,29.4-9.52c10.08,0,17.92,2.568,23.52,7.7   c5.601,5.134,8.4,12.508,8.4,22.12v26.46c0,3.269,1.352,4.948,4.06,5.04V155c-1.494,0.28-2.777,0.466-3.85,0.56   c-1.074,0.092-2.124,0.14-3.15,0.14c-2.987,0-5.298-0.746-6.93-2.24c-1.634-1.492-2.638-3.406-3.01-5.74l-0.42-4.62   c-3.269,4.294-7.305,7.584-12.11,9.87C1012.508,155.256,1007.352,156.4,1001.846,156.4z M1006.046,145.06   c3.731,0,7.256-0.676,10.569-2.03c3.313-1.352,5.902-3.242,7.771-5.67c1.96-1.68,2.939-3.452,2.939-5.32v-9.66   c-2.613-1.026-5.39-1.82-8.33-2.38c-2.939-0.56-5.81-0.84-8.609-0.84c-5.509,0-10.01,1.19-13.51,3.57s-5.25,5.53-5.25,9.45   c0,3.64,1.352,6.698,4.06,9.17C998.392,143.824,1001.846,145.06,1006.046,145.06z"
   fill="#4E4E4E" />
	<path
   id="path488"
   d="M1127.006,155h-15.4v-41.02c0-6.906-1.098-11.922-3.29-15.05c-2.194-3.126-5.438-4.69-9.729-4.69   c-2.24,0-4.48,0.42-6.721,1.26s-4.34,2.03-6.3,3.57s-3.71,3.36-5.25,5.46c-1.54,2.1-2.729,4.41-3.57,6.93V155h-15.399V81.78h14   v14.7c2.8-4.946,6.859-8.842,12.18-11.69c5.32-2.846,11.2-4.27,17.64-4.27c4.387,0,7.98,0.794,10.78,2.38   c2.8,1.588,5.016,3.758,6.65,6.51c1.632,2.754,2.775,5.928,3.43,9.52c0.652,3.594,0.98,7.398,0.98,11.41V155z"
   fill="#4E4E4E" />
</g>
<g
   id="g610">
	<path
   id="path492"
   d="M520.352,265.3c-3.041,0-5.811-0.609-8.31-1.83c-2.5-1.22-4.65-2.84-6.45-4.86   c-1.8-2.019-3.19-4.329-4.17-6.93c-0.98-2.6-1.47-5.26-1.47-7.98c0-2.84,0.519-5.56,1.56-8.16c1.04-2.6,2.469-4.899,4.29-6.9   c1.819-2,3.979-3.59,6.48-4.77c2.499-1.18,5.229-1.77,8.19-1.77c3.039,0,5.81,0.63,8.31,1.89c2.499,1.26,4.64,2.91,6.42,4.95   c1.779,2.04,3.159,4.35,4.14,6.93c0.979,2.58,1.47,5.21,1.47,7.89c0,2.841-0.51,5.561-1.53,8.16c-1.02,2.601-2.451,4.89-4.29,6.87   c-1.84,1.98-4.011,3.561-6.51,4.74C525.982,264.711,523.271,265.3,520.352,265.3z M506.792,243.701c0,2,0.32,3.94,0.96,5.82   c0.64,1.88,1.55,3.54,2.73,4.98c1.18,1.44,2.61,2.59,4.29,3.45c1.68,0.86,3.56,1.29,5.64,1.29c2.16,0,4.07-0.45,5.73-1.35   c1.659-0.9,3.069-2.09,4.23-3.57c1.16-1.479,2.04-3.14,2.64-4.98c0.6-1.839,0.9-3.72,0.9-5.64c0-2.04-0.321-3.99-0.96-5.85   c-0.641-1.86-1.551-3.5-2.73-4.92c-1.181-1.419-2.601-2.56-4.26-3.42c-1.66-0.859-3.51-1.29-5.55-1.29c-2.16,0-4.08,0.45-5.76,1.35   c-1.68,0.9-3.1,2.07-4.26,3.51c-1.161,1.44-2.05,3.09-2.67,4.95C507.102,239.891,506.792,241.78,506.792,243.701z"
   fill="#4E4E4E" />
	<path
   id="path494"
   d="M564.752,265.601c-2.52,0-4.74-0.6-6.66-1.8c-1.92-1.2-3.441-2.76-4.56-4.68v18.66h-6.6v-44.16h5.82v5.64   c1.2-1.879,2.75-3.379,4.65-4.5c1.899-1.119,4.05-1.68,6.45-1.68c2.16,0,4.14,0.44,5.94,1.32c1.8,0.88,3.36,2.061,4.68,3.54   c1.32,1.48,2.35,3.201,3.09,5.16c0.74,1.96,1.11,4.02,1.11,6.18c0,2.28-0.34,4.41-1.02,6.39c-0.681,1.98-1.641,3.7-2.88,5.16   c-1.24,1.46-2.71,2.62-4.41,3.48C568.662,265.17,566.792,265.601,564.752,265.601z M562.592,259.96c1.399,0,2.67-0.3,3.81-0.9   c1.14-0.6,2.12-1.4,2.94-2.4c0.819-1,1.449-2.14,1.89-3.42c0.44-1.28,0.66-2.6,0.66-3.96c0-1.44-0.25-2.799-0.75-4.08   c-0.5-1.28-1.18-2.4-2.04-3.36c-0.86-0.96-1.89-1.719-3.09-2.28c-1.2-0.56-2.5-0.84-3.9-0.84c-0.84,0-1.72,0.16-2.64,0.48   c-0.92,0.32-1.78,0.76-2.58,1.32c-0.801,0.561-1.5,1.21-2.1,1.95c-0.6,0.74-1.02,1.55-1.26,2.43v8.22   c0.399,0.96,0.919,1.86,1.56,2.7c0.639,0.84,1.35,1.56,2.13,2.16s1.629,1.08,2.55,1.44   C560.692,259.78,561.632,259.96,562.592,259.96z"
   fill="#4E4E4E" />
	<path
   id="path496"
   d="M598.832,265.601c-2.44,0-4.661-0.43-6.66-1.29c-2-0.86-3.71-2.03-5.13-3.51c-1.42-1.479-2.52-3.2-3.3-5.16   c-0.78-1.959-1.17-4.04-1.17-6.24c0-2.199,0.39-4.29,1.17-6.27c0.78-1.98,1.88-3.72,3.3-5.22c1.419-1.5,3.129-2.68,5.13-3.54   c2-0.86,4.239-1.29,6.72-1.29c2.439,0,4.65,0.44,6.63,1.32c1.98,0.88,3.669,2.05,5.07,3.51c1.4,1.46,2.469,3.16,3.21,5.1   c0.74,1.941,1.11,3.971,1.11,6.09c0,0.48-0.021,0.93-0.06,1.35c-0.041,0.42-0.081,0.771-0.12,1.05h-25.14   c0.12,1.4,0.45,2.661,0.99,3.78c0.54,1.121,1.239,2.091,2.1,2.91c0.86,0.82,1.839,1.45,2.94,1.89c1.1,0.44,2.25,0.66,3.45,0.66   c0.879,0,1.75-0.11,2.61-0.33c0.86-0.22,1.65-0.54,2.37-0.96c0.72-0.42,1.359-0.93,1.92-1.53c0.56-0.6,1-1.26,1.32-1.98l5.64,1.62   c-1.08,2.36-2.871,4.29-5.37,5.79C605.061,264.851,602.151,265.601,598.832,265.601z M608.372,246.94   c-0.12-1.32-0.45-2.54-0.99-3.66c-0.54-1.119-1.23-2.07-2.07-2.85c-0.84-0.78-1.821-1.39-2.94-1.83   c-1.121-0.44-2.301-0.66-3.54-0.66c-1.241,0-2.411,0.22-3.51,0.66c-1.101,0.44-2.07,1.05-2.91,1.83   c-0.84,0.78-1.521,1.73-2.04,2.85c-0.521,1.121-0.84,2.34-0.96,3.66H608.372z"
   fill="#4E4E4E" />
	<path
   id="path498"
   d="M648.449,265h-6.6v-17.58c0-2.959-0.471-5.109-1.409-6.45c-0.94-1.34-2.331-2.01-4.17-2.01   c-0.96,0-1.92,0.18-2.88,0.54s-1.86,0.87-2.7,1.53c-0.84,0.66-1.59,1.44-2.25,2.34c-0.66,0.9-1.17,1.89-1.53,2.97V265h-6.6v-31.38   h6v6.3c1.2-2.12,2.94-3.789,5.22-5.01c2.28-1.22,4.8-1.83,7.56-1.83c1.879,0,3.419,0.34,4.62,1.02   c1.199,0.681,2.148,1.61,2.85,2.79c0.699,1.18,1.189,2.541,1.469,4.08c0.279,1.54,0.42,3.17,0.42,4.89V265z"
   fill="#4E4E4E" />
	<path
   id="path500"
   d="M655.83,251.561v-5.94h17.939v5.94H655.83z"
   fill="#4E4E4E" />
	<path
   id="path502"
   d="M692.789,265.601c-2.52,0-5.031-0.411-7.529-1.23c-2.5-0.819-4.65-1.989-6.451-3.51l2.641-4.2   c1.879,1.36,3.74,2.391,5.58,3.09c1.84,0.7,3.721,1.05,5.641,1.05c1.959,0,3.51-0.379,4.648-1.14   c1.141-0.76,1.711-1.839,1.711-3.24c0-1.32-0.641-2.28-1.92-2.88c-1.281-0.6-3.281-1.26-6-1.98c-1.961-0.52-3.641-1.02-5.041-1.5   s-2.539-1.04-3.42-1.68c-0.879-0.639-1.52-1.38-1.92-2.22c-0.4-0.84-0.6-1.86-0.6-3.06c0-1.6,0.311-3.02,0.93-4.26   c0.621-1.239,1.48-2.289,2.58-3.15c1.1-0.86,2.391-1.509,3.871-1.95c1.479-0.44,3.08-0.66,4.799-0.66   c2.359,0,4.561,0.36,6.602,1.08c2.039,0.72,3.859,1.76,5.459,3.12l-2.82,3.96c-2.92-2.32-6.02-3.48-9.299-3.48   c-1.682,0-3.09,0.351-4.23,1.05c-1.141,0.7-1.711,1.81-1.711,3.33c0,0.64,0.121,1.18,0.361,1.62c0.24,0.441,0.629,0.82,1.17,1.14   c0.539,0.321,1.238,0.61,2.1,0.87c0.859,0.261,1.93,0.55,3.209,0.87c2.121,0.52,3.951,1.041,5.49,1.56   c1.539,0.52,2.811,1.13,3.811,1.83c1,0.701,1.74,1.521,2.221,2.46c0.479,0.94,0.719,2.07,0.719,3.39c0,3-1.131,5.37-3.389,7.11   C699.738,264.73,696.668,265.601,692.789,265.601z"
   fill="#4E4E4E" />
	<path
   id="path504"
   d="M725.248,265.601c-2.48,0-4.711-0.441-6.689-1.32c-1.98-0.879-3.672-2.06-5.07-3.54   c-1.4-1.479-2.48-3.21-3.24-5.19s-1.141-4.05-1.141-6.21c0-2.16,0.381-4.23,1.141-6.21s1.85-3.709,3.27-5.19   c1.42-1.479,3.121-2.66,5.1-3.54c1.98-0.879,4.191-1.32,6.631-1.32s4.65,0.44,6.631,1.32c1.979,0.88,3.68,2.061,5.1,3.54   c1.418,1.48,2.51,3.21,3.27,5.19s1.141,4.05,1.141,6.21c0,2.16-0.381,4.23-1.141,6.21s-1.852,3.711-3.27,5.19   c-1.42,1.48-3.121,2.66-5.1,3.54C729.898,265.16,727.688,265.601,725.248,265.601z M715.889,249.4c0,1.521,0.24,2.92,0.719,4.2   c0.48,1.281,1.141,2.391,1.98,3.33c0.84,0.94,1.83,1.68,2.971,2.22c1.139,0.54,2.369,0.81,3.689,0.81s2.551-0.27,3.689-0.81   c1.141-0.54,2.131-1.29,2.971-2.25s1.5-2.079,1.98-3.36c0.479-1.28,0.719-2.679,0.719-4.2c0-1.479-0.24-2.87-0.719-4.17   c-0.48-1.299-1.141-2.43-1.98-3.39c-0.84-0.96-1.83-1.71-2.971-2.25c-1.139-0.54-2.369-0.81-3.689-0.81   c-1.281,0-2.49,0.28-3.631,0.84c-1.139,0.561-2.129,1.32-2.969,2.28s-1.512,2.091-2.01,3.39   C716.137,246.531,715.889,247.921,715.889,249.4z"
   fill="#4E4E4E" />
	<path
   id="path506"
   d="M756.928,265.601c-3.279,0-5.76-1.07-7.439-3.21c-1.68-2.14-2.52-5.33-2.52-9.57v-19.2h6.6v17.88   c0,5.64,2,8.46,6,8.46c1.879,0,3.66-0.579,5.34-1.74c1.68-1.16,2.979-2.84,3.9-5.04v-19.56h6.6v23.58c0,0.76,0.129,1.3,0.391,1.62   c0.26,0.321,0.729,0.501,1.41,0.54V265c-0.682,0.12-1.24,0.2-1.682,0.24c-0.439,0.039-0.859,0.06-1.26,0.06   c-1.199,0-2.219-0.33-3.059-0.99c-0.842-0.66-1.281-1.509-1.32-2.55l-0.121-3.12c-1.4,2.28-3.221,4.01-5.459,5.19   C762.068,265.01,759.607,265.601,756.928,265.601z"
   fill="#4E4E4E" />
	<path
   id="path508"
   d="M801.447,239.32c-2.561,0.081-4.83,0.67-6.811,1.77c-1.98,1.101-3.389,2.67-4.23,4.71V265h-6.6v-31.38   h6.121v7.02c1.08-2.16,2.49-3.89,4.229-5.19c1.74-1.3,3.609-2.01,5.611-2.13c0.398,0,0.729,0,0.99,0c0.26,0,0.488,0.021,0.689,0.06   V239.32z"
   fill="#4E4E4E" />
	<path
   id="path510"
   d="M802.648,249.28c0-2.199,0.379-4.279,1.139-6.24c0.76-1.959,1.852-3.68,3.271-5.16   c1.418-1.479,3.129-2.649,5.129-3.51c2-0.86,4.24-1.29,6.721-1.29c3.24,0,6.029,0.71,8.369,2.13c2.34,1.42,4.09,3.311,5.25,5.67   l-6.42,2.04c-0.76-1.32-1.779-2.349-3.059-3.09c-1.281-0.74-2.701-1.11-4.262-1.11c-1.318,0-2.549,0.26-3.689,0.78   c-1.139,0.521-2.129,1.25-2.969,2.19c-0.842,0.94-1.5,2.05-1.98,3.33c-0.48,1.281-0.721,2.7-0.721,4.26   c0,1.521,0.25,2.931,0.75,4.23c0.5,1.301,1.18,2.43,2.041,3.39c0.859,0.96,1.859,1.71,3,2.25c1.139,0.54,2.35,0.81,3.629,0.81   c0.801,0,1.6-0.11,2.4-0.33c0.799-0.219,1.529-0.53,2.189-0.93c0.66-0.399,1.24-0.86,1.74-1.38c0.5-0.519,0.871-1.08,1.109-1.68   l6.48,1.92c-1.041,2.36-2.779,4.29-5.219,5.79c-2.441,1.5-5.32,2.25-8.641,2.25c-2.441,0-4.66-0.441-6.66-1.32   s-3.711-2.07-5.131-3.57s-2.52-3.229-3.299-5.19C803.037,253.561,802.648,251.481,802.648,249.28z"
   fill="#4E4E4E" />
	<path
   id="path512"
   d="M852.146,265.601c-2.439,0-4.66-0.43-6.66-1.29s-3.709-2.03-5.129-3.51c-1.42-1.479-2.52-3.2-3.301-5.16   c-0.779-1.959-1.17-4.04-1.17-6.24c0-2.199,0.391-4.29,1.17-6.27c0.781-1.98,1.881-3.72,3.301-5.22s3.129-2.68,5.129-3.54   c2-0.86,4.24-1.29,6.721-1.29c2.439,0,4.65,0.44,6.631,1.32c1.979,0.88,3.668,2.05,5.07,3.51c1.398,1.46,2.469,3.16,3.209,5.1   c0.74,1.941,1.109,3.971,1.109,6.09c0,0.48-0.02,0.93-0.059,1.35c-0.041,0.42-0.082,0.771-0.121,1.05h-25.139   c0.119,1.4,0.449,2.661,0.988,3.78c0.541,1.121,1.24,2.091,2.102,2.91c0.859,0.82,1.838,1.45,2.939,1.89   c1.1,0.44,2.25,0.66,3.449,0.66c0.881,0,1.75-0.11,2.611-0.33c0.859-0.22,1.648-0.54,2.369-0.96c0.721-0.42,1.359-0.93,1.92-1.53   s1-1.26,1.32-1.98l5.641,1.62c-1.08,2.36-2.871,4.29-5.371,5.79S855.467,265.601,852.146,265.601z M861.688,246.94   c-0.121-1.32-0.451-2.54-0.99-3.66c-0.539-1.119-1.23-2.07-2.07-2.85c-0.84-0.78-1.82-1.39-2.939-1.83   c-1.121-0.44-2.301-0.66-3.541-0.66s-2.41,0.22-3.51,0.66c-1.1,0.44-2.07,1.05-2.91,1.83c-0.84,0.78-1.52,1.73-2.039,2.85   c-0.521,1.121-0.84,2.34-0.961,3.66H861.688z"
   fill="#4E4E4E" />
	<path
   id="path514"
   d="M896.787,265.601c-1.521,0-2.932-0.25-4.23-0.75c-1.301-0.5-2.42-1.19-3.359-2.07   c-0.941-0.879-1.68-1.92-2.221-3.12c-0.539-1.2-0.811-2.5-0.811-3.9c0-1.479,0.32-2.82,0.961-4.02c0.639-1.2,1.549-2.24,2.73-3.12   c1.18-0.879,2.58-1.56,4.199-2.04c1.621-0.48,3.41-0.72,5.371-0.72c1.479,0,2.939,0.13,4.379,0.39c1.439,0.261,2.74,0.61,3.9,1.05   v-2.16c0-2.319-0.66-4.13-1.98-5.43c-1.32-1.299-3.221-1.95-5.699-1.95c-1.68,0-3.33,0.311-4.951,0.93   c-1.619,0.621-3.289,1.51-5.01,2.67l-2.039-4.2c4.039-2.72,8.238-4.08,12.6-4.08c4.32,0,7.68,1.101,10.08,3.3   c2.4,2.2,3.6,5.361,3.6,9.48v11.34c0,1.4,0.58,2.121,1.74,2.16V265c-0.641,0.12-1.191,0.2-1.65,0.24   c-0.461,0.039-0.91,0.06-1.35,0.06c-1.281,0-2.271-0.319-2.971-0.96c-0.699-0.639-1.131-1.459-1.289-2.46l-0.18-1.98   c-1.4,1.84-3.131,3.25-5.191,4.23C901.355,265.11,899.146,265.601,896.787,265.601z M898.586,260.741c1.6,0,3.111-0.29,4.531-0.87   c1.42-0.58,2.529-1.39,3.33-2.43c0.84-0.72,1.26-1.479,1.26-2.28v-4.14c-1.121-0.44-2.311-0.78-3.57-1.02s-2.49-0.36-3.689-0.36   c-2.361,0-4.291,0.51-5.791,1.53s-2.25,2.37-2.25,4.05c0,1.56,0.58,2.871,1.74,3.93   C895.307,260.211,896.787,260.741,898.586,260.741z"
   fill="#4E4E4E" />
	<path
   id="path516"
   d="M950.426,265h-6.6v-17.58c0-2.959-0.471-5.109-1.41-6.45c-0.939-1.34-2.33-2.01-4.17-2.01   c-0.959,0-1.92,0.18-2.879,0.54c-0.961,0.36-1.861,0.87-2.701,1.53c-0.84,0.66-1.59,1.44-2.25,2.34s-1.17,1.89-1.529,2.97V265h-6.6   v-31.38h6v6.3c1.199-2.12,2.939-3.789,5.219-5.01c2.281-1.22,4.801-1.83,7.561-1.83c1.881,0,3.42,0.34,4.621,1.02   c1.199,0.681,2.148,1.61,2.85,2.79c0.699,1.18,1.189,2.541,1.469,4.08c0.279,1.54,0.42,3.17,0.42,4.89V265z"
   fill="#4E4E4E" />
	<path
   id="path518"
   d="M966.445,265.601c-1.521,0-2.932-0.25-4.23-0.75c-1.301-0.5-2.42-1.19-3.359-2.07   c-0.941-0.879-1.68-1.92-2.221-3.12c-0.539-1.2-0.811-2.5-0.811-3.9c0-1.479,0.32-2.82,0.961-4.02c0.639-1.2,1.549-2.24,2.73-3.12   c1.18-0.879,2.58-1.56,4.199-2.04c1.621-0.48,3.41-0.72,5.371-0.72c1.479,0,2.939,0.13,4.379,0.39c1.439,0.261,2.74,0.61,3.9,1.05   v-2.16c0-2.319-0.66-4.13-1.98-5.43c-1.32-1.299-3.221-1.95-5.699-1.95c-1.68,0-3.33,0.311-4.951,0.93   c-1.619,0.621-3.289,1.51-5.01,2.67l-2.039-4.2c4.039-2.72,8.238-4.08,12.6-4.08c4.32,0,7.68,1.101,10.08,3.3   c2.4,2.2,3.6,5.361,3.6,9.48v11.34c0,1.4,0.58,2.121,1.74,2.16V265c-0.641,0.12-1.191,0.2-1.65,0.24   c-0.461,0.039-0.91,0.06-1.35,0.06c-1.281,0-2.271-0.319-2.971-0.96c-0.699-0.639-1.131-1.459-1.289-2.46l-0.18-1.98   c-1.4,1.84-3.131,3.25-5.191,4.23C971.014,265.11,968.805,265.601,966.445,265.601z M968.244,260.741c1.6,0,3.111-0.29,4.531-0.87   c1.42-0.58,2.529-1.39,3.33-2.43c0.84-0.72,1.26-1.479,1.26-2.28v-4.14c-1.121-0.44-2.311-0.78-3.57-1.02s-2.49-0.36-3.689-0.36   c-2.361,0-4.291,0.51-5.791,1.53s-2.25,2.37-2.25,4.05c0,1.56,0.58,2.871,1.74,3.93   C964.965,260.211,966.445,260.741,968.244,260.741z"
   fill="#4E4E4E" />
	<path
   id="path520"
   d="M992.004,221.201h6.602v34.74c0,1.161,0.299,2.07,0.898,2.73c0.602,0.66,1.441,0.99,2.521,0.99   c0.439,0,0.949-0.08,1.529-0.24c0.58-0.159,1.129-0.339,1.65-0.54l0.959,5.16c-0.959,0.44-2.1,0.79-3.42,1.05   c-1.318,0.26-2.5,0.39-3.539,0.39c-2.279,0-4.051-0.62-5.311-1.86c-1.26-1.239-1.891-3-1.891-5.28V221.201z"
   fill="#4E4E4E" />
	<path
   id="path522"
   d="M1010.426,272.381c0.6,0.119,1.189,0.219,1.77,0.3c0.58,0.079,1.051,0.12,1.41,0.12   c0.52,0,0.969-0.111,1.35-0.33c0.379-0.221,0.77-0.61,1.17-1.17c0.4-0.561,0.811-1.35,1.23-2.37s0.908-2.331,1.471-3.93   l-12.9-31.38h6.779l9.721,25.56l8.639-25.56h6.24l-14.219,38.639c-0.641,1.801-1.752,3.311-3.33,4.531   c-1.582,1.219-3.611,1.83-6.09,1.83c-0.48,0-0.98-0.031-1.5-0.091c-0.521-0.06-1.102-0.19-1.74-0.39V272.381z"
   fill="#4E4E4E" />
	<path
   id="path524"
   d="M1052.846,265.601c-2.52,0-5.031-0.411-7.529-1.23c-2.5-0.819-4.65-1.989-6.451-3.51l2.641-4.2   c1.879,1.36,3.74,2.391,5.58,3.09c1.84,0.7,3.721,1.05,5.641,1.05c1.959,0,3.51-0.379,4.648-1.14   c1.141-0.76,1.711-1.839,1.711-3.24c0-1.32-0.641-2.28-1.92-2.88c-1.281-0.6-3.281-1.26-6-1.98c-1.961-0.52-3.641-1.02-5.041-1.5   s-2.539-1.04-3.42-1.68c-0.879-0.639-1.52-1.38-1.92-2.22c-0.4-0.84-0.6-1.86-0.6-3.06c0-1.6,0.311-3.02,0.93-4.26   c0.621-1.239,1.48-2.289,2.58-3.15c1.1-0.86,2.391-1.509,3.871-1.95c1.479-0.44,3.08-0.66,4.799-0.66   c2.359,0,4.561,0.36,6.602,1.08c2.039,0.72,3.859,1.76,5.459,3.12l-2.82,3.96c-2.92-2.32-6.02-3.48-9.299-3.48   c-1.682,0-3.09,0.351-4.23,1.05c-1.141,0.7-1.711,1.81-1.711,3.33c0,0.64,0.121,1.18,0.361,1.62c0.24,0.441,0.629,0.82,1.17,1.14   c0.539,0.321,1.238,0.61,2.1,0.87c0.859,0.261,1.93,0.55,3.209,0.87c2.121,0.52,3.951,1.041,5.49,1.56   c1.539,0.52,2.811,1.13,3.811,1.83c1,0.701,1.74,1.521,2.221,2.46c0.479,0.94,0.719,2.07,0.719,3.39c0,3-1.131,5.37-3.389,7.11   C1059.795,264.73,1056.725,265.601,1052.846,265.601z"
   fill="#4E4E4E" />
	<path
   id="path526"
   d="M1071.205,228.46v-7.26h6.6v7.26H1071.205z M1071.205,265v-31.38h6.6V265H1071.205z"
   fill="#4E4E4E" />
	<path
   id="path528"
   d="M1097.125,265.601c-2.521,0-5.031-0.411-7.531-1.23s-4.65-1.989-6.449-3.51l2.639-4.2   c1.881,1.36,3.74,2.391,5.58,3.09c1.84,0.7,3.721,1.05,5.641,1.05c1.959,0,3.51-0.379,4.65-1.14c1.141-0.76,1.709-1.839,1.709-3.24   c0-1.32-0.639-2.28-1.92-2.88c-1.279-0.6-3.279-1.26-6-1.98c-1.959-0.52-3.639-1.02-5.039-1.5s-2.541-1.04-3.42-1.68   c-0.881-0.639-1.521-1.38-1.92-2.22c-0.4-0.84-0.6-1.86-0.6-3.06c0-1.6,0.309-3.02,0.93-4.26c0.619-1.239,1.479-2.289,2.58-3.15   c1.1-0.86,2.389-1.509,3.869-1.95c1.48-0.44,3.08-0.66,4.801-0.66c2.359,0,4.561,0.36,6.6,1.08c2.039,0.72,3.859,1.76,5.461,3.12   l-2.82,3.96c-2.922-2.32-6.021-3.48-9.301-3.48c-1.68,0-3.09,0.351-4.23,1.05c-1.139,0.7-1.709,1.81-1.709,3.33   c0,0.64,0.119,1.18,0.359,1.62c0.24,0.441,0.631,0.82,1.17,1.14c0.541,0.321,1.24,0.61,2.1,0.87c0.861,0.261,1.93,0.55,3.211,0.87   c2.119,0.52,3.949,1.041,5.49,1.56c1.539,0.52,2.809,1.13,3.809,1.83c1,0.701,1.74,1.521,2.221,2.46   c0.48,0.94,0.721,2.07,0.721,3.39c0,3-1.131,5.37-3.391,7.11C1104.074,264.73,1101.004,265.601,1097.125,265.601z"
   fill="#4E4E4E" />
	<path
   id="path530"
   d="M515.912,337.601c-2.48,0-4.71-0.44-6.69-1.32s-3.67-2.06-5.07-3.54c-1.4-1.479-2.48-3.21-3.24-5.189   c-0.76-1.98-1.14-4.051-1.14-6.211c0-2.159,0.38-4.229,1.14-6.209c0.759-1.98,1.85-3.71,3.27-5.19c1.419-1.479,3.12-2.659,5.1-3.54   c1.98-0.879,4.189-1.32,6.63-1.32c2.439,0,4.65,0.441,6.63,1.32c1.98,0.881,3.68,2.061,5.1,3.54c1.419,1.48,2.51,3.21,3.27,5.19   c0.759,1.979,1.14,4.05,1.14,6.209c0,2.16-0.381,4.23-1.14,6.211c-0.76,1.979-1.851,3.711-3.27,5.189   c-1.42,1.48-3.12,2.66-5.1,3.54S518.352,337.601,515.912,337.601z M506.552,321.4c0,1.521,0.24,2.92,0.72,4.2s1.14,2.391,1.98,3.33   c0.84,0.94,1.83,1.68,2.97,2.22c1.14,0.54,2.37,0.811,3.69,0.811s2.55-0.271,3.69-0.811s2.13-1.29,2.97-2.25   c0.84-0.96,1.5-2.079,1.98-3.359s0.72-2.68,0.72-4.201c0-1.479-0.24-2.869-0.72-4.17c-0.48-1.299-1.14-2.43-1.98-3.39   c-0.84-0.96-1.83-1.71-2.97-2.25s-2.37-0.81-3.69-0.81c-1.281,0-2.49,0.28-3.63,0.84c-1.14,0.561-2.13,1.32-2.97,2.279   c-0.84,0.961-1.51,2.092-2.01,3.391C506.801,318.531,506.552,319.921,506.552,321.4z"
   fill="#4E4E4E" />
	<path
   id="path532"
   d="M539.251,337v-25.5h-4.2v-5.1h4.2v-1.26c0-3.879,0.9-6.939,2.7-9.18s4.239-3.36,7.32-3.36   c1.28,0,2.54,0.171,3.78,0.51c1.239,0.341,2.419,0.81,3.54,1.41l-1.44,4.92c-0.6-0.36-1.311-0.66-2.13-0.899   c-0.82-0.24-1.61-0.36-2.37-0.36c-1.56,0-2.751,0.58-3.57,1.739c-0.82,1.161-1.23,2.842-1.23,5.041v1.439h8.04v5.1h-8.04V337   H539.251z"
   fill="#4E4E4E" />
	<path
   id="path534"
   d="M583.771,337.601c-2.52,0-5.03-0.411-7.53-1.229c-2.5-0.82-4.65-1.99-6.45-3.511l2.64-4.2   c1.88,1.361,3.74,2.391,5.58,3.09c1.839,0.701,3.72,1.051,5.64,1.051c1.959,0,3.51-0.38,4.65-1.141c1.14-0.76,1.71-1.839,1.71-3.24   c0-1.319-0.641-2.279-1.92-2.879c-1.281-0.601-3.28-1.261-6-1.98c-1.96-0.52-3.641-1.02-5.04-1.5   c-1.401-0.48-2.541-1.039-3.42-1.68c-0.88-0.64-1.521-1.381-1.92-2.221c-0.4-0.84-0.6-1.859-0.6-3.06c0-1.6,0.309-3.021,0.93-4.261   c0.62-1.238,1.479-2.289,2.58-3.149c1.1-0.86,2.39-1.509,3.87-1.95c1.479-0.439,3.08-0.66,4.8-0.66c2.36,0,4.56,0.36,6.6,1.08   c2.04,0.721,3.86,1.761,5.46,3.12l-2.82,3.96c-2.92-2.319-6.021-3.48-9.3-3.48c-1.68,0-3.09,0.352-4.23,1.051   c-1.14,0.7-1.71,1.811-1.71,3.33c0,0.641,0.12,1.18,0.36,1.619c0.24,0.441,0.63,0.82,1.17,1.141s1.239,0.61,2.1,0.87   c0.86,0.261,1.93,0.55,3.21,0.87c2.12,0.52,3.95,1.041,5.49,1.561c1.54,0.52,2.81,1.13,3.81,1.829c1,0.7,1.74,1.521,2.22,2.46   c0.48,0.94,0.72,2.07,0.72,3.391c0,3-1.13,5.369-3.39,7.109C590.72,336.73,587.65,337.601,583.771,337.601z"
   fill="#4E4E4E" />
	<path
   id="path536"
   d="M611.79,337.601c-3.28,0-5.76-1.069-7.44-3.21c-1.68-2.14-2.52-5.33-2.52-9.57v-19.199h6.6V323.5   c0,5.641,2,8.461,6,8.461c1.88,0,3.66-0.58,5.34-1.74c1.68-1.16,2.979-2.84,3.9-5.04v-19.56h6.6v23.58c0,0.76,0.129,1.3,0.39,1.619   c0.259,0.32,0.729,0.501,1.41,0.54V337c-0.681,0.121-1.24,0.2-1.68,0.24c-0.441,0.039-0.861,0.061-1.26,0.061   c-1.2,0-2.22-0.33-3.06-0.99c-0.84-0.66-1.281-1.51-1.32-2.551l-0.12-3.119c-1.4,2.279-3.22,4.01-5.46,5.189   C616.929,337.01,614.469,337.601,611.79,337.601z"
   fill="#4E4E4E" />
	<path
   id="path538"
   d="M656.309,311.32c-2.559,0.08-4.83,0.67-6.809,1.77c-1.98,1.102-3.391,2.67-4.23,4.711V337h-6.6v-31.379   h6.12v7.02c1.08-2.16,2.49-3.89,4.23-5.189c1.74-1.301,3.609-2.011,5.609-2.131c0.4,0,0.73,0,0.99,0s0.49,0.021,0.689,0.061V311.32   z"
   fill="#4E4E4E" />
	<path
   id="path540"
   d="M662.908,337v-25.5h-4.199v-5.1h4.199v-1.26c0-3.879,0.9-6.939,2.701-9.18c1.799-2.24,4.238-3.36,7.32-3.36   c1.279,0,2.539,0.171,3.779,0.51c1.24,0.341,2.42,0.81,3.539,1.41l-1.439,4.92c-0.6-0.36-1.311-0.66-2.129-0.899   c-0.82-0.24-1.611-0.36-2.371-0.36c-1.561,0-2.75,0.58-3.57,1.739c-0.82,1.161-1.229,2.842-1.229,5.041v1.439h8.039v5.1h-8.039V337   H662.908z"
   fill="#4E4E4E" />
	<path
   id="path542"
   d="M690.328,337.601c-1.52,0-2.93-0.251-4.229-0.75c-1.301-0.5-2.422-1.19-3.361-2.07s-1.68-1.92-2.219-3.12   c-0.541-1.199-0.811-2.499-0.811-3.9c0-1.479,0.32-2.819,0.959-4.02c0.641-1.199,1.551-2.239,2.73-3.119s2.58-1.561,4.201-2.041   c1.619-0.479,3.408-0.72,5.369-0.72c1.479,0,2.939,0.13,4.381,0.39c1.439,0.262,2.738,0.611,3.898,1.051v-2.16   c0-2.319-0.66-4.13-1.979-5.43c-1.32-1.3-3.221-1.951-5.701-1.951c-1.68,0-3.33,0.311-4.949,0.931   c-1.621,0.62-3.291,1.511-5.01,2.67l-2.041-4.2c4.041-2.719,8.24-4.08,12.6-4.08c4.32,0,7.682,1.102,10.08,3.301   c2.4,2.199,3.602,5.36,3.602,9.479v11.341c0,1.4,0.578,2.12,1.738,2.159V337c-0.639,0.121-1.189,0.2-1.648,0.24   c-0.461,0.039-0.91,0.061-1.352,0.061c-1.279,0-2.27-0.32-2.969-0.961c-0.701-0.639-1.131-1.459-1.291-2.459l-0.18-1.98   c-1.4,1.84-3.131,3.25-5.189,4.23C694.898,337.11,692.689,337.601,690.328,337.601z M692.129,332.74c1.6,0,3.109-0.289,4.529-0.869   s2.529-1.391,3.33-2.431c0.84-0.72,1.26-1.479,1.26-2.28v-4.14c-1.119-0.44-2.309-0.78-3.568-1.021   c-1.262-0.24-2.49-0.359-3.691-0.359c-2.359,0-4.289,0.51-5.789,1.529c-1.5,1.021-2.25,2.371-2.25,4.051   c0,1.56,0.578,2.871,1.74,3.93C688.848,332.211,690.328,332.74,692.129,332.74z"
   fill="#4E4E4E" />
	<path
   id="path544"
   d="M713.789,321.28c0-2.199,0.379-4.279,1.139-6.239s1.852-3.68,3.271-5.16c1.418-1.48,3.129-2.65,5.129-3.51   c2-0.86,4.24-1.291,6.721-1.291c3.24,0,6.029,0.711,8.369,2.131s4.09,3.311,5.25,5.67l-6.42,2.039   c-0.76-1.319-1.779-2.349-3.059-3.09c-1.281-0.739-2.701-1.109-4.262-1.109c-1.318,0-2.549,0.26-3.689,0.779   c-1.139,0.521-2.129,1.251-2.969,2.19c-0.842,0.94-1.5,2.05-1.98,3.33s-0.721,2.7-0.721,4.26c0,1.521,0.25,2.931,0.75,4.229   c0.5,1.301,1.18,2.431,2.041,3.391c0.859,0.96,1.859,1.71,3,2.25c1.139,0.54,2.35,0.811,3.629,0.811c0.801,0,1.6-0.11,2.4-0.33   c0.799-0.22,1.529-0.53,2.189-0.93c0.66-0.4,1.24-0.86,1.74-1.381c0.5-0.52,0.871-1.08,1.109-1.68l6.48,1.92   c-1.041,2.36-2.779,4.29-5.219,5.79c-2.441,1.5-5.32,2.25-8.641,2.25c-2.441,0-4.66-0.44-6.66-1.32s-3.711-2.069-5.131-3.569   s-2.52-3.23-3.299-5.19C714.178,325.561,713.789,323.48,713.789,321.28z"
   fill="#4E4E4E" />
	<path
   id="path546"
   d="M763.289,337.601c-2.441,0-4.66-0.431-6.66-1.29s-3.711-2.029-5.131-3.51c-1.42-1.479-2.52-3.2-3.299-5.16   c-0.781-1.959-1.17-4.04-1.17-6.24c0-2.199,0.389-4.29,1.17-6.27c0.779-1.98,1.879-3.721,3.299-5.221s3.131-2.68,5.131-3.539   c2-0.86,4.24-1.291,6.721-1.291c2.439,0,4.648,0.441,6.629,1.32c1.98,0.881,3.67,2.051,5.07,3.51c1.4,1.461,2.469,3.16,3.211,5.1   c0.738,1.941,1.109,3.971,1.109,6.091c0,0.479-0.021,0.93-0.061,1.351c-0.039,0.42-0.08,0.77-0.119,1.049h-25.141   c0.119,1.4,0.449,2.661,0.99,3.78c0.539,1.12,1.238,2.091,2.1,2.91c0.859,0.82,1.84,1.45,2.939,1.89   c1.1,0.441,2.25,0.66,3.451,0.66c0.879,0,1.748-0.109,2.609-0.33c0.859-0.219,1.65-0.539,2.371-0.959   c0.719-0.421,1.359-0.931,1.92-1.531c0.559-0.6,0.998-1.26,1.318-1.979l5.641,1.62c-1.08,2.36-2.871,4.29-5.369,5.79   C769.52,336.851,766.609,337.601,763.289,337.601z M772.828,318.94c-0.119-1.319-0.449-2.54-0.988-3.66   c-0.541-1.119-1.23-2.069-2.07-2.85s-1.82-1.39-2.941-1.83c-1.119-0.44-2.301-0.66-3.539-0.66c-1.24,0-2.41,0.22-3.51,0.66   c-1.102,0.44-2.07,1.05-2.91,1.83s-1.521,1.73-2.041,2.85c-0.52,1.12-0.84,2.341-0.959,3.66H772.828z"
   fill="#4E4E4E" />
	<path
   id="path548"
   d="M810.988,337.601c-2.521,0-5.031-0.411-7.531-1.229c-2.5-0.82-4.65-1.99-6.449-3.511l2.639-4.2   c1.881,1.361,3.74,2.391,5.58,3.09c1.84,0.701,3.721,1.051,5.641,1.051c1.959,0,3.51-0.38,4.65-1.141   c1.141-0.76,1.709-1.839,1.709-3.24c0-1.319-0.639-2.279-1.92-2.879c-1.279-0.601-3.279-1.261-6-1.98   c-1.959-0.52-3.639-1.02-5.039-1.5s-2.541-1.039-3.42-1.68c-0.881-0.64-1.521-1.381-1.92-2.221c-0.4-0.84-0.6-1.859-0.6-3.06   c0-1.6,0.309-3.021,0.93-4.261c0.619-1.238,1.479-2.289,2.58-3.149c1.1-0.86,2.389-1.509,3.869-1.95   c1.48-0.439,3.08-0.66,4.801-0.66c2.359,0,4.561,0.36,6.6,1.08c2.039,0.721,3.859,1.761,5.461,3.12l-2.82,3.96   c-2.922-2.319-6.021-3.48-9.301-3.48c-1.68,0-3.09,0.352-4.23,1.051c-1.139,0.7-1.709,1.811-1.709,3.33   c0,0.641,0.119,1.18,0.359,1.619c0.24,0.441,0.631,0.82,1.17,1.141c0.541,0.32,1.24,0.61,2.1,0.87   c0.861,0.261,1.93,0.55,3.211,0.87c2.119,0.52,3.949,1.041,5.49,1.561c1.539,0.52,2.809,1.13,3.809,1.829   c1,0.7,1.74,1.521,2.221,2.46c0.48,0.94,0.721,2.07,0.721,3.391c0,3-1.131,5.369-3.391,7.109S814.867,337.601,810.988,337.601z"
   fill="#4E4E4E" />
	<path
   id="path550"
   d="M827.307,321.28c0-2.199,0.379-4.279,1.139-6.239s1.852-3.68,3.271-5.16c1.418-1.48,3.129-2.65,5.129-3.51   c2-0.86,4.24-1.291,6.721-1.291c3.24,0,6.029,0.711,8.369,2.131s4.09,3.311,5.25,5.67l-6.42,2.039   c-0.76-1.319-1.779-2.349-3.059-3.09c-1.281-0.739-2.701-1.109-4.262-1.109c-1.318,0-2.549,0.26-3.689,0.779   c-1.139,0.521-2.129,1.251-2.969,2.19c-0.842,0.94-1.5,2.05-1.98,3.33s-0.721,2.7-0.721,4.26c0,1.521,0.25,2.931,0.75,4.229   c0.5,1.301,1.18,2.431,2.041,3.391c0.859,0.96,1.859,1.71,3,2.25c1.139,0.54,2.35,0.811,3.629,0.811c0.801,0,1.6-0.11,2.4-0.33   c0.799-0.22,1.529-0.53,2.189-0.93c0.66-0.4,1.24-0.86,1.74-1.381c0.5-0.52,0.871-1.08,1.109-1.68l6.48,1.92   c-1.041,2.36-2.779,4.29-5.219,5.79c-2.441,1.5-5.32,2.25-8.641,2.25c-2.441,0-4.66-0.44-6.66-1.32s-3.711-2.069-5.131-3.569   s-2.52-3.23-3.299-5.19C827.695,325.561,827.307,323.48,827.307,321.28z"
   fill="#4E4E4E" />
	<path
   id="path552"
   d="M871.227,337.601c-1.521,0-2.932-0.251-4.23-0.75c-1.301-0.5-2.42-1.19-3.359-2.07   c-0.941-0.88-1.68-1.92-2.221-3.12c-0.539-1.199-0.811-2.499-0.811-3.9c0-1.479,0.32-2.819,0.961-4.02   c0.639-1.199,1.549-2.239,2.73-3.119c1.18-0.88,2.58-1.561,4.199-2.041c1.621-0.479,3.41-0.72,5.371-0.72   c1.479,0,2.939,0.13,4.379,0.39c1.439,0.262,2.74,0.611,3.9,1.051v-2.16c0-2.319-0.66-4.13-1.98-5.43s-3.221-1.951-5.699-1.951   c-1.68,0-3.33,0.311-4.951,0.931c-1.619,0.62-3.289,1.511-5.01,2.67l-2.039-4.2c4.039-2.719,8.238-4.08,12.6-4.08   c4.32,0,7.68,1.102,10.08,3.301s3.6,5.36,3.6,9.479v11.341c0,1.4,0.58,2.12,1.74,2.159V337c-0.641,0.121-1.191,0.2-1.65,0.24   c-0.461,0.039-0.91,0.061-1.35,0.061c-1.281,0-2.271-0.32-2.971-0.961c-0.699-0.639-1.131-1.459-1.289-2.459l-0.18-1.98   c-1.4,1.84-3.131,3.25-5.191,4.23C875.795,337.11,873.586,337.601,871.227,337.601z M873.025,332.74c1.6,0,3.111-0.289,4.531-0.869   s2.529-1.391,3.33-2.431c0.84-0.72,1.26-1.479,1.26-2.28v-4.14c-1.121-0.44-2.311-0.78-3.57-1.021s-2.49-0.359-3.689-0.359   c-2.361,0-4.291,0.51-5.791,1.529c-1.5,1.021-2.25,2.371-2.25,4.051c0,1.56,0.58,2.871,1.74,3.93   C869.746,332.211,871.227,332.74,873.025,332.74z"
   fill="#4E4E4E" />
	<path
   id="path554"
   d="M924.865,337h-6.6v-17.58c0-2.959-0.471-5.109-1.41-6.449s-2.33-2.01-4.17-2.01   c-0.959,0-1.92,0.18-2.879,0.539c-0.961,0.36-1.861,0.871-2.701,1.53c-0.84,0.66-1.59,1.44-2.25,2.341   c-0.66,0.899-1.17,1.889-1.529,2.969V337h-6.6v-31.379h6v6.299c1.199-2.119,2.939-3.789,5.219-5.01   c2.281-1.219,4.801-1.83,7.561-1.83c1.881,0,3.42,0.341,4.621,1.021c1.199,0.681,2.148,1.61,2.85,2.79   c0.699,1.18,1.189,2.541,1.469,4.08c0.279,1.54,0.42,3.17,0.42,4.89V337z"
   fill="#4E4E4E" />
	<path
   id="path556"
   d="M943.945,337.601c-2.521,0-5.031-0.411-7.531-1.229c-2.5-0.82-4.65-1.99-6.449-3.511l2.639-4.2   c1.881,1.361,3.74,2.391,5.58,3.09c1.84,0.701,3.721,1.051,5.641,1.051c1.959,0,3.51-0.38,4.65-1.141   c1.141-0.76,1.709-1.839,1.709-3.24c0-1.319-0.639-2.279-1.92-2.879c-1.279-0.601-3.279-1.261-6-1.98   c-1.959-0.52-3.639-1.02-5.039-1.5s-2.541-1.039-3.42-1.68c-0.881-0.64-1.521-1.381-1.92-2.221c-0.4-0.84-0.6-1.859-0.6-3.06   c0-1.6,0.309-3.021,0.93-4.261c0.619-1.238,1.479-2.289,2.58-3.149c1.1-0.86,2.389-1.509,3.869-1.95   c1.48-0.439,3.08-0.66,4.801-0.66c2.359,0,4.561,0.36,6.6,1.08c2.039,0.721,3.859,1.761,5.461,3.12l-2.82,3.96   c-2.922-2.319-6.021-3.48-9.301-3.48c-1.68,0-3.09,0.352-4.23,1.051c-1.139,0.7-1.709,1.811-1.709,3.33   c0,0.641,0.119,1.18,0.359,1.619c0.24,0.441,0.631,0.82,1.17,1.141c0.541,0.32,1.24,0.61,2.1,0.87   c0.861,0.261,1.93,0.55,3.211,0.87c2.119,0.52,3.949,1.041,5.49,1.561c1.539,0.52,2.809,1.13,3.809,1.829   c1,0.7,1.74,1.521,2.221,2.46c0.48,0.94,0.721,2.07,0.721,3.391c0,3-1.131,5.369-3.391,7.109S947.824,337.601,943.945,337.601z"
   fill="#4E4E4E" />
	<path
   id="path558"
   d="M978.924,337v-25.5h-4.201v-5.1h4.201v-1.26c0-3.879,0.9-6.939,2.699-9.18c1.801-2.24,4.24-3.36,7.32-3.36   c1.279,0,2.539,0.171,3.779,0.51c1.24,0.341,2.42,0.81,3.541,1.41l-1.439,4.92c-0.602-0.36-1.311-0.66-2.131-0.899   c-0.82-0.24-1.611-0.36-2.369-0.36c-1.561,0-2.752,0.58-3.57,1.739c-0.82,1.161-1.23,2.842-1.23,5.041v1.439h8.041v5.1h-8.041V337   H978.924z"
   fill="#4E4E4E" />
	<path
   id="path560"
   d="M1011.023,337.601c-2.48,0-4.711-0.44-6.689-1.32c-1.98-0.88-3.672-2.06-5.07-3.54   c-1.4-1.479-2.48-3.21-3.24-5.189c-0.76-1.98-1.141-4.051-1.141-6.211c0-2.159,0.381-4.229,1.141-6.209   c0.76-1.98,1.85-3.71,3.27-5.19c1.42-1.479,3.121-2.659,5.1-3.54c1.98-0.879,4.191-1.32,6.631-1.32s4.65,0.441,6.631,1.32   c1.979,0.881,3.68,2.061,5.1,3.54c1.418,1.48,2.51,3.21,3.27,5.19c0.76,1.979,1.141,4.05,1.141,6.209   c0,2.16-0.381,4.23-1.141,6.211c-0.76,1.979-1.852,3.711-3.27,5.189c-1.42,1.48-3.121,2.66-5.1,3.54   C1015.674,337.16,1013.463,337.601,1011.023,337.601z M1001.664,321.4c0,1.521,0.24,2.92,0.719,4.2   c0.48,1.28,1.141,2.391,1.98,3.33c0.84,0.94,1.83,1.68,2.971,2.22c1.139,0.54,2.369,0.811,3.689,0.811s2.551-0.271,3.689-0.811   c1.141-0.54,2.131-1.29,2.971-2.25s1.5-2.079,1.98-3.359c0.479-1.28,0.719-2.68,0.719-4.201c0-1.479-0.24-2.869-0.719-4.17   c-0.48-1.299-1.141-2.43-1.98-3.39s-1.83-1.71-2.971-2.25c-1.139-0.54-2.369-0.81-3.689-0.81c-1.281,0-2.49,0.28-3.631,0.84   c-1.139,0.561-2.129,1.32-2.969,2.279c-0.84,0.961-1.512,2.092-2.01,3.391C1001.912,318.531,1001.664,319.921,1001.664,321.4z"
   fill="#4E4E4E" />
	<path
   id="path562"
   d="M1050.684,311.32c-2.561,0.08-4.83,0.67-6.811,1.77c-1.98,1.102-3.389,2.67-4.23,4.711V337h-6.6v-31.379   h6.121v7.02c1.08-2.16,2.49-3.89,4.229-5.189c1.74-1.301,3.609-2.011,5.611-2.131c0.398,0,0.729,0,0.99,0   c0.26,0,0.488,0.021,0.689,0.061V311.32z"
   fill="#4E4E4E" />
	<path
   id="path564"
   d="M502.652,409v-42.6h17.88c1.92,0,3.69,0.4,5.31,1.2c1.62,0.8,3.009,1.851,4.17,3.149   c1.16,1.301,2.07,2.781,2.73,4.44c0.66,1.66,0.99,3.351,0.99,5.069c0,1.801-0.31,3.531-0.93,5.191   c-0.621,1.66-1.491,3.141-2.61,4.439c-1.12,1.301-2.47,2.34-4.05,3.119c-1.581,0.781-3.33,1.171-5.25,1.171h-11.52V409H502.652z    M509.372,388.24h11.1c0.96,0,1.83-0.199,2.61-0.6c0.78-0.399,1.449-0.96,2.01-1.68c0.56-0.721,0.999-1.561,1.32-2.521   c0.32-0.96,0.48-2.02,0.48-3.181c0-1.199-0.18-2.279-0.54-3.239s-0.861-1.79-1.5-2.49c-0.64-0.699-1.371-1.239-2.19-1.62   c-0.82-0.379-1.671-0.57-2.55-0.57h-10.74V388.24z"
   fill="#4E4E4E" />
	<path
   id="path566"
   d="M556.831,383.32c-2.561,0.08-4.83,0.67-6.81,1.77c-1.98,1.102-3.39,2.67-4.23,4.711V409h-6.6v-31.379h6.12   v7.02c1.08-2.16,2.49-3.89,4.23-5.189c1.74-1.301,3.609-2.011,5.61-2.131c0.399,0,0.729,0,0.99,0c0.26,0,0.489,0.021,0.69,0.061   V383.32z"
   fill="#4E4E4E" />
	<path
   id="path568"
   d="M574.172,409.601c-2.48,0-4.71-0.44-6.69-1.32s-3.67-2.06-5.07-3.54c-1.4-1.479-2.48-3.21-3.24-5.189   c-0.76-1.98-1.14-4.051-1.14-6.211c0-2.159,0.38-4.229,1.14-6.209c0.759-1.98,1.85-3.71,3.27-5.19c1.419-1.479,3.12-2.659,5.1-3.54   c1.98-0.879,4.189-1.32,6.63-1.32c2.439,0,4.65,0.441,6.63,1.32c1.98,0.881,3.68,2.061,5.1,3.54c1.419,1.48,2.51,3.21,3.27,5.19   c0.759,1.979,1.14,4.05,1.14,6.209c0,2.16-0.381,4.23-1.14,6.211c-0.76,1.979-1.851,3.711-3.27,5.189   c-1.42,1.48-3.12,2.66-5.1,3.54S576.611,409.601,574.172,409.601z M564.812,393.4c0,1.521,0.24,2.92,0.72,4.2s1.14,2.391,1.98,3.33   c0.84,0.94,1.83,1.68,2.97,2.22c1.14,0.54,2.37,0.811,3.69,0.811s2.55-0.271,3.69-0.811s2.13-1.29,2.97-2.25   c0.84-0.96,1.5-2.079,1.98-3.359s0.72-2.68,0.72-4.201c0-1.479-0.24-2.869-0.72-4.17c-0.48-1.299-1.14-2.43-1.98-3.39   c-0.84-0.96-1.83-1.71-2.97-2.25s-2.37-0.81-3.69-0.81c-1.281,0-2.49,0.28-3.63,0.84c-1.14,0.561-2.13,1.32-2.97,2.279   c-0.84,0.961-1.51,2.092-2.01,3.391C565.061,390.531,564.812,391.921,564.812,393.4z"
   fill="#4E4E4E" />
	<path
   id="path570"
   d="M607.591,409.601c-2.52,0-5.03-0.411-7.53-1.229c-2.5-0.82-4.65-1.99-6.45-3.511l2.64-4.2   c1.88,1.361,3.74,2.391,5.58,3.09c1.839,0.701,3.72,1.051,5.64,1.051c1.959,0,3.51-0.38,4.65-1.141c1.14-0.76,1.71-1.839,1.71-3.24   c0-1.319-0.641-2.279-1.92-2.879c-1.281-0.601-3.28-1.261-6-1.98c-1.96-0.52-3.641-1.02-5.04-1.5   c-1.401-0.48-2.541-1.039-3.42-1.68c-0.88-0.64-1.521-1.381-1.92-2.221c-0.4-0.84-0.6-1.859-0.6-3.06c0-1.6,0.309-3.021,0.93-4.261   c0.62-1.238,1.479-2.289,2.58-3.149c1.1-0.86,2.39-1.509,3.87-1.95c1.479-0.439,3.08-0.66,4.8-0.66c2.36,0,4.56,0.36,6.6,1.08   c2.04,0.721,3.86,1.761,5.46,3.12l-2.82,3.96c-2.92-2.319-6.021-3.48-9.3-3.48c-1.68,0-3.09,0.352-4.23,1.051   c-1.14,0.7-1.71,1.811-1.71,3.33c0,0.641,0.12,1.18,0.36,1.619c0.24,0.441,0.63,0.82,1.17,1.141s1.239,0.61,2.1,0.87   c0.86,0.261,1.93,0.55,3.21,0.87c2.12,0.52,3.95,1.041,5.49,1.561c1.54,0.52,2.81,1.13,3.81,1.829c1,0.7,1.74,1.521,2.22,2.46   c0.48,0.94,0.72,2.07,0.72,3.391c0,3-1.13,5.369-3.39,7.109C614.541,408.73,611.47,409.601,607.591,409.601z"
   fill="#4E4E4E" />
	<path
   id="path572"
   d="M643.41,407.381c-0.84,0.4-2,0.85-3.48,1.35c-1.48,0.5-3.06,0.75-4.74,0.75c-1.041,0-2.021-0.141-2.94-0.42   c-0.92-0.279-1.73-0.699-2.43-1.26c-0.7-0.561-1.25-1.291-1.65-2.19c-0.4-0.899-0.6-1.989-0.6-3.271v-19.619h-4.14v-5.1h4.14   v-10.32h6.6v10.32h6.839v5.1h-6.839v17.52c0.08,1.121,0.429,1.931,1.05,2.43c0.62,0.501,1.389,0.75,2.31,0.75   c0.919,0,1.8-0.158,2.64-0.479c0.839-0.319,1.458-0.579,1.859-0.78L643.41,407.381z"
   fill="#4E4E4E" />
	<path
   id="path574"
   d="M676.109,409h-6.6v-17.58c0-2.879-0.51-5.01-1.531-6.39c-1.02-1.38-2.488-2.069-4.41-2.069   c-0.92,0-1.84,0.18-2.76,0.539c-0.92,0.36-1.789,0.871-2.609,1.53c-0.82,0.66-1.551,1.44-2.189,2.341   c-0.641,0.899-1.121,1.889-1.441,2.969V409h-6.6v-43.799h6.6v18.719c1.201-2.16,2.83-3.84,4.891-5.039   c2.061-1.2,4.311-1.801,6.75-1.801c1.959,0,3.57,0.352,4.83,1.051s2.27,1.63,3.029,2.789c0.76,1.161,1.291,2.512,1.592,4.051   c0.299,1.54,0.449,3.17,0.449,4.89V409z"
   fill="#4E4E4E" />
	<path
   id="path576"
   d="M698.008,409.601c-2.439,0-4.66-0.431-6.66-1.29s-3.709-2.029-5.129-3.51c-1.42-1.479-2.52-3.2-3.301-5.16   c-0.779-1.959-1.17-4.04-1.17-6.24c0-2.199,0.391-4.29,1.17-6.27c0.781-1.98,1.881-3.721,3.301-5.221s3.129-2.68,5.129-3.539   c2-0.86,4.24-1.291,6.721-1.291c2.439,0,4.65,0.441,6.631,1.32c1.979,0.881,3.668,2.051,5.07,3.51   c1.398,1.461,2.469,3.16,3.209,5.1c0.74,1.941,1.109,3.971,1.109,6.091c0,0.479-0.02,0.93-0.059,1.351   c-0.041,0.42-0.082,0.77-0.121,1.049H688.77c0.119,1.4,0.449,2.661,0.988,3.78c0.541,1.12,1.24,2.091,2.102,2.91   c0.859,0.82,1.838,1.45,2.939,1.89c1.1,0.441,2.25,0.66,3.449,0.66c0.881,0,1.75-0.109,2.611-0.33   c0.859-0.219,1.648-0.539,2.369-0.959c0.721-0.421,1.359-0.931,1.92-1.531c0.561-0.6,1-1.26,1.32-1.979l5.641,1.62   c-1.08,2.36-2.871,4.29-5.371,5.79S701.328,409.601,698.008,409.601z M707.549,390.94c-0.121-1.319-0.451-2.54-0.99-3.66   c-0.539-1.119-1.23-2.069-2.07-2.85s-1.82-1.39-2.939-1.83c-1.121-0.44-2.301-0.66-3.541-0.66s-2.41,0.22-3.51,0.66   s-2.07,1.05-2.91,1.83s-1.52,1.73-2.039,2.85c-0.521,1.12-0.84,2.341-0.961,3.66H707.549z"
   fill="#4E4E4E" />
	<path
   id="path578"
   d="M736.707,407.381c-0.84,0.4-2,0.85-3.479,1.35c-1.48,0.5-3.061,0.75-4.74,0.75   c-1.041,0-2.021-0.141-2.941-0.42s-1.73-0.699-2.43-1.26s-1.25-1.291-1.65-2.19s-0.6-1.989-0.6-3.271v-19.619h-4.139v-5.1h4.139   v-10.32h6.6v10.32h6.84v5.1h-6.84v17.52c0.08,1.121,0.43,1.931,1.051,2.43c0.619,0.501,1.389,0.75,2.311,0.75   c0.92,0,1.799-0.158,2.639-0.479c0.84-0.319,1.461-0.579,1.861-0.78L736.707,407.381z"
   fill="#4E4E4E" />
	<path
   id="path580"
   d="M741.268,372.461v-7.26h6.6v7.26H741.268z M741.268,409v-31.379h6.6V409H741.268z"
   fill="#4E4E4E" />
	<path
   id="path582"
   d="M753.746,393.28c0-2.199,0.381-4.279,1.141-6.239s1.85-3.68,3.27-5.16s3.129-2.65,5.131-3.51   c2-0.86,4.238-1.291,6.719-1.291c3.24,0,6.031,0.711,8.371,2.131s4.09,3.311,5.25,5.67l-6.42,2.039   c-0.76-1.319-1.781-2.349-3.061-3.09c-1.281-0.739-2.699-1.109-4.26-1.109c-1.32,0-2.551,0.26-3.689,0.779   c-1.141,0.521-2.131,1.251-2.971,2.19c-0.84,0.94-1.5,2.05-1.98,3.33c-0.479,1.28-0.719,2.7-0.719,4.26   c0,1.521,0.248,2.931,0.75,4.229c0.498,1.301,1.178,2.431,2.039,3.391c0.859,0.96,1.859,1.71,3,2.25s2.35,0.811,3.631,0.811   c0.799,0,1.6-0.11,2.398-0.33c0.801-0.22,1.531-0.53,2.191-0.93c0.66-0.4,1.238-0.86,1.74-1.381c0.498-0.52,0.869-1.08,1.109-1.68   l6.48,1.92c-1.041,2.36-2.781,4.29-5.221,5.79s-5.32,2.25-8.641,2.25c-2.439,0-4.66-0.44-6.66-1.32s-3.709-2.069-5.129-3.569   s-2.52-3.23-3.301-5.19C754.137,397.561,753.746,395.48,753.746,393.28z"
   fill="#4E4E4E" />
	<path
   id="path584"
   d="M800.727,409.601c-2.521,0-5.031-0.411-7.531-1.229c-2.5-0.82-4.65-1.99-6.449-3.511l2.639-4.2   c1.881,1.361,3.74,2.391,5.58,3.09c1.84,0.701,3.721,1.051,5.641,1.051c1.959,0,3.51-0.38,4.65-1.141   c1.141-0.76,1.709-1.839,1.709-3.24c0-1.319-0.639-2.279-1.92-2.879c-1.279-0.601-3.279-1.261-6-1.98   c-1.959-0.52-3.639-1.02-5.039-1.5s-2.541-1.039-3.42-1.68c-0.881-0.64-1.521-1.381-1.92-2.221c-0.4-0.84-0.6-1.859-0.6-3.06   c0-1.6,0.309-3.021,0.93-4.261c0.619-1.238,1.479-2.289,2.58-3.149c1.1-0.86,2.389-1.509,3.869-1.95   c1.48-0.439,3.08-0.66,4.801-0.66c2.359,0,4.561,0.36,6.6,1.08c2.039,0.721,3.859,1.761,5.461,3.12l-2.82,3.96   c-2.922-2.319-6.021-3.48-9.301-3.48c-1.68,0-3.09,0.352-4.23,1.051c-1.139,0.7-1.709,1.811-1.709,3.33   c0,0.641,0.119,1.18,0.359,1.619c0.24,0.441,0.631,0.82,1.17,1.141c0.541,0.32,1.24,0.61,2.1,0.87   c0.861,0.261,1.93,0.55,3.211,0.87c2.119,0.52,3.949,1.041,5.49,1.561c1.539,0.52,2.809,1.13,3.809,1.829   c1,0.7,1.74,1.521,2.221,2.46c0.48,0.94,0.721,2.07,0.721,3.391c0,3-1.131,5.369-3.391,7.109S804.605,409.601,800.727,409.601z"
   fill="#4E4E4E" />
	<path
   id="path586"
   d="M842.244,409.601c-1.52,0-2.93-0.251-4.229-0.75c-1.301-0.5-2.422-1.19-3.361-2.07s-1.68-1.92-2.219-3.12   c-0.541-1.199-0.811-2.499-0.811-3.9c0-1.479,0.32-2.819,0.959-4.02c0.641-1.199,1.551-2.239,2.73-3.119s2.58-1.561,4.201-2.041   c1.619-0.479,3.408-0.72,5.369-0.72c1.479,0,2.939,0.13,4.381,0.39c1.439,0.262,2.738,0.611,3.898,1.051v-2.16   c0-2.319-0.66-4.13-1.979-5.43c-1.32-1.3-3.221-1.951-5.701-1.951c-1.68,0-3.33,0.311-4.949,0.931   c-1.621,0.62-3.291,1.511-5.01,2.67l-2.041-4.2c4.041-2.719,8.24-4.08,12.6-4.08c4.32,0,7.682,1.102,10.08,3.301   c2.4,2.199,3.602,5.36,3.602,9.479v11.341c0,1.4,0.578,2.12,1.738,2.159V409c-0.639,0.121-1.189,0.2-1.648,0.24   c-0.461,0.039-0.91,0.061-1.352,0.061c-1.279,0-2.27-0.32-2.969-0.961c-0.701-0.639-1.131-1.459-1.291-2.459l-0.18-1.98   c-1.4,1.84-3.131,3.25-5.189,4.23C846.814,409.11,844.605,409.601,842.244,409.601z M844.045,404.74c1.6,0,3.109-0.289,4.529-0.869   s2.529-1.391,3.33-2.431c0.84-0.72,1.26-1.479,1.26-2.28v-4.14c-1.119-0.44-2.309-0.78-3.568-1.021   c-1.262-0.24-2.49-0.359-3.691-0.359c-2.359,0-4.289,0.51-5.789,1.529c-1.5,1.021-2.25,2.371-2.25,4.051   c0,1.56,0.578,2.871,1.74,3.93C840.764,404.211,842.244,404.74,844.045,404.74z"
   fill="#4E4E4E" />
	<path
   id="path588"
   d="M895.885,409h-6.6v-17.58c0-2.959-0.471-5.109-1.41-6.449c-0.941-1.34-2.33-2.01-4.17-2.01   c-0.961,0-1.92,0.18-2.881,0.539c-0.959,0.36-1.859,0.871-2.699,1.53c-0.84,0.66-1.59,1.44-2.25,2.341   c-0.66,0.899-1.17,1.889-1.531,2.969V409h-6.6v-31.379h6v6.299c1.201-2.119,2.941-3.789,5.221-5.01   c2.279-1.219,4.801-1.83,7.561-1.83c1.879,0,3.42,0.341,4.619,1.021c1.199,0.681,2.15,1.61,2.85,2.79s1.189,2.541,1.471,4.08   c0.279,1.54,0.42,3.17,0.42,4.89V409z"
   fill="#4E4E4E" />
	<path
   id="path590"
   d="M916.344,409.601c-2.121,0-4.08-0.431-5.879-1.29c-1.801-0.859-3.361-2.029-4.682-3.51   c-1.318-1.479-2.35-3.211-3.09-5.19s-1.109-4.11-1.109-6.39c0-2.199,0.35-4.27,1.051-6.211c0.699-1.939,1.68-3.648,2.939-5.129   s2.738-2.65,4.439-3.51c1.699-0.86,3.57-1.291,5.609-1.291c2.521,0,4.74,0.611,6.66,1.83c1.92,1.221,3.42,2.771,4.5,4.65v-18.359   h6.602v36c0,0.76,0.129,1.3,0.389,1.619c0.26,0.32,0.73,0.501,1.41,0.54V409c-0.68,0.121-1.23,0.2-1.65,0.24   c-0.42,0.039-0.77,0.061-1.049,0.061c-1.32,0-2.4-0.34-3.24-1.021c-0.84-0.68-1.301-1.56-1.381-2.64l-0.119-2.34   c-1.16,1.96-2.74,3.5-4.74,4.619C921.004,409.04,918.783,409.601,916.344,409.601z M917.965,403.961c0.959,0,1.92-0.16,2.879-0.48   c0.961-0.32,1.84-0.76,2.641-1.32c0.799-0.56,1.49-1.219,2.07-1.979c0.578-0.76,0.99-1.58,1.229-2.46V389.5   c-0.359-0.999-0.869-1.92-1.529-2.76s-1.41-1.56-2.25-2.16c-0.84-0.6-1.73-1.059-2.67-1.379s-1.891-0.48-2.85-0.48   c-1.32,0-2.531,0.3-3.631,0.9c-1.1,0.6-2.051,1.4-2.85,2.399c-0.801,1.001-1.43,2.14-1.891,3.42   c-0.459,1.28-0.689,2.601-0.689,3.96c0,1.439,0.25,2.801,0.75,4.08c0.5,1.281,1.189,2.4,2.07,3.359   c0.879,0.961,1.891,1.721,3.029,2.281C915.414,403.682,916.645,403.961,917.965,403.961z"
   fill="#4E4E4E" />
	<path
   id="path592"
   d="M975.143,409.301c-3.039,0-5.811-0.609-8.309-1.83c-2.502-1.22-4.65-2.84-6.451-4.86   c-1.799-2.019-3.189-4.329-4.17-6.93s-1.471-5.26-1.471-7.979c0-2.84,0.52-5.561,1.561-8.16c1.039-2.6,2.469-4.9,4.291-6.9   c1.818-2,3.979-3.59,6.479-4.77s5.23-1.771,8.191-1.771c3.039,0,5.809,0.63,8.309,1.89s4.641,2.91,6.42,4.95   s3.16,4.351,4.141,6.931s1.471,5.21,1.471,7.889c0,2.842-0.51,5.561-1.531,8.16c-1.02,2.602-2.449,4.891-4.289,6.871   c-1.84,1.979-4.012,3.561-6.51,4.739C980.773,408.711,978.063,409.301,975.143,409.301z M961.584,387.701   c0,2,0.318,3.939,0.959,5.819c0.639,1.88,1.549,3.54,2.73,4.979c1.18,1.44,2.609,2.591,4.289,3.451   c1.68,0.859,3.561,1.289,5.641,1.289c2.16,0,4.07-0.449,5.73-1.35c1.658-0.9,3.068-2.09,4.229-3.57   c1.16-1.479,2.041-3.14,2.641-4.98c0.6-1.839,0.9-3.719,0.9-5.639c0-2.041-0.32-3.99-0.961-5.851c-0.639-1.86-1.549-3.5-2.729-4.92   c-1.182-1.419-2.602-2.56-4.26-3.421c-1.662-0.859-3.512-1.289-5.551-1.289c-2.16,0-4.08,0.449-5.76,1.35s-3.102,2.07-4.26,3.51   c-1.162,1.44-2.051,3.09-2.67,4.95C961.893,383.891,961.584,385.78,961.584,387.701z"
   fill="#4E4E4E" />
	<path
   id="path594"
   d="M1019.363,383.32c-2.561,0.08-4.83,0.67-6.811,1.77c-1.98,1.102-3.389,2.67-4.23,4.711V409h-6.6v-31.379   h6.121v7.02c1.08-2.16,2.49-3.89,4.229-5.189c1.74-1.301,3.609-2.011,5.611-2.131c0.398,0,0.729,0,0.99,0   c0.26,0,0.488,0.021,0.689,0.061V383.32z"
   fill="#4E4E4E" />
	<path
   id="path596"
   d="M1041.623,407.381c-0.84,0.4-2.002,0.85-3.48,1.35c-1.48,0.5-3.061,0.75-4.74,0.75   c-1.041,0-2.02-0.141-2.939-0.42s-1.73-0.699-2.43-1.26c-0.701-0.561-1.252-1.291-1.65-2.19c-0.4-0.899-0.6-1.989-0.6-3.271   v-19.619h-4.141v-5.1h4.141v-10.32h6.6v10.32h6.84v5.1h-6.84v17.52c0.08,1.121,0.43,1.931,1.051,2.43   c0.619,0.501,1.389,0.75,2.309,0.75s1.801-0.158,2.641-0.479c0.84-0.319,1.459-0.579,1.859-0.78L1041.623,407.381z"
   fill="#4E4E4E" />
	<path
   id="path598"
   d="M1074.322,409h-6.6v-17.58c0-2.879-0.51-5.01-1.531-6.39c-1.02-1.38-2.488-2.069-4.41-2.069   c-0.92,0-1.84,0.18-2.76,0.539c-0.92,0.36-1.789,0.871-2.609,1.53c-0.82,0.66-1.551,1.44-2.189,2.341   c-0.641,0.899-1.121,1.889-1.441,2.969V409h-6.6v-43.799h6.6v18.719c1.201-2.16,2.83-3.84,4.891-5.039   c2.061-1.2,4.311-1.801,6.75-1.801c1.959,0,3.57,0.352,4.83,1.051s2.27,1.63,3.029,2.789c0.76,1.161,1.291,2.512,1.592,4.051   c0.299,1.54,0.449,3.17,0.449,4.89V409z"
   fill="#4E4E4E" />
	<path
   id="path600"
   d="M1096.1,409.601c-2.48,0-4.709-0.44-6.689-1.32s-3.67-2.06-5.07-3.54c-1.4-1.479-2.48-3.21-3.24-5.189   c-0.76-1.98-1.139-4.051-1.139-6.211c0-2.159,0.379-4.229,1.139-6.209c0.76-1.98,1.852-3.71,3.271-5.19   c1.418-1.479,3.119-2.659,5.1-3.54c1.98-0.879,4.189-1.32,6.629-1.32s4.65,0.441,6.631,1.32c1.98,0.881,3.68,2.061,5.1,3.54   c1.42,1.48,2.51,3.21,3.27,5.19c0.76,1.979,1.141,4.05,1.141,6.209c0,2.16-0.381,4.23-1.141,6.211   c-0.76,1.979-1.85,3.711-3.27,5.189c-1.42,1.48-3.119,2.66-5.1,3.54S1098.539,409.601,1096.1,409.601z M1086.74,393.4   c0,1.521,0.24,2.92,0.721,4.2s1.139,2.391,1.98,3.33c0.84,0.94,1.83,1.68,2.969,2.22c1.141,0.54,2.371,0.811,3.689,0.811   c1.32,0,2.551-0.271,3.691-0.811c1.139-0.54,2.129-1.29,2.969-2.25s1.5-2.079,1.98-3.359s0.721-2.68,0.721-4.201   c0-1.479-0.24-2.869-0.721-4.17c-0.48-1.299-1.141-2.43-1.98-3.39s-1.83-1.71-2.969-2.25c-1.141-0.54-2.371-0.81-3.691-0.81   c-1.279,0-2.488,0.28-3.629,0.84c-1.141,0.561-2.131,1.32-2.971,2.279c-0.84,0.961-1.51,2.092-2.01,3.391   C1086.99,390.531,1086.74,391.921,1086.74,393.4z"
   fill="#4E4E4E" />
	<path
   id="path602"
   d="M1135.16,407.381c-0.84,0.4-2,0.85-3.479,1.35c-1.48,0.5-3.061,0.75-4.74,0.75   c-1.041,0-2.021-0.141-2.941-0.42s-1.73-0.699-2.43-1.26s-1.25-1.291-1.65-2.19s-0.6-1.989-0.6-3.271v-19.619h-4.139v-5.1h4.139   v-10.32h6.6v10.32h6.84v5.1h-6.84v17.52c0.08,1.121,0.43,1.931,1.051,2.43c0.619,0.501,1.389,0.75,2.311,0.75   c0.92,0,1.799-0.158,2.639-0.479c0.84-0.319,1.461-0.579,1.861-0.78L1135.16,407.381z"
   fill="#4E4E4E" />
	<path
   id="path604"
   d="M1139.721,372.461v-7.26h6.6v7.26H1139.721z M1139.721,409v-31.379h6.6V409H1139.721z"
   fill="#4E4E4E" />
	<path
   id="path606"
   d="M1152.199,393.28c0-2.199,0.381-4.279,1.141-6.239s1.85-3.68,3.27-5.16s3.129-2.65,5.131-3.51   c2-0.86,4.238-1.291,6.719-1.291c3.24,0,6.031,0.711,8.371,2.131s4.09,3.311,5.25,5.67l-6.42,2.039   c-0.76-1.319-1.781-2.349-3.061-3.09c-1.281-0.739-2.699-1.109-4.26-1.109c-1.32,0-2.551,0.26-3.689,0.779   c-1.141,0.521-2.131,1.251-2.971,2.19c-0.84,0.94-1.5,2.05-1.98,3.33c-0.479,1.28-0.719,2.7-0.719,4.26   c0,1.521,0.248,2.931,0.75,4.229c0.498,1.301,1.178,2.431,2.039,3.391c0.859,0.96,1.859,1.71,3,2.25s2.35,0.811,3.631,0.811   c0.799,0,1.6-0.11,2.398-0.33c0.801-0.22,1.531-0.53,2.191-0.93c0.66-0.4,1.238-0.86,1.74-1.381c0.498-0.52,0.869-1.08,1.109-1.68   l6.48,1.92c-1.041,2.36-2.781,4.29-5.221,5.79s-5.32,2.25-8.641,2.25c-2.439,0-4.66-0.44-6.66-1.32s-3.709-2.069-5.129-3.569   s-2.52-3.23-3.301-5.19C1152.59,397.561,1152.199,395.48,1152.199,393.28z"
   fill="#4E4E4E" />
	<path
   id="path608"
   d="M1199.18,409.601c-2.521,0-5.031-0.411-7.531-1.229c-2.5-0.82-4.65-1.99-6.449-3.511l2.639-4.2   c1.881,1.361,3.74,2.391,5.58,3.09c1.84,0.701,3.721,1.051,5.641,1.051c1.959,0,3.51-0.38,4.65-1.141   c1.141-0.76,1.709-1.839,1.709-3.24c0-1.319-0.639-2.279-1.92-2.879c-1.279-0.601-3.279-1.261-6-1.98   c-1.959-0.52-3.639-1.02-5.039-1.5s-2.541-1.039-3.42-1.68c-0.881-0.64-1.521-1.381-1.92-2.221c-0.4-0.84-0.6-1.859-0.6-3.06   c0-1.6,0.309-3.021,0.93-4.261c0.619-1.238,1.479-2.289,2.58-3.149c1.1-0.86,2.389-1.509,3.869-1.95   c1.48-0.439,3.08-0.66,4.801-0.66c2.359,0,4.561,0.36,6.6,1.08c2.039,0.721,3.859,1.761,5.461,3.12l-2.82,3.96   c-2.922-2.319-6.021-3.48-9.301-3.48c-1.68,0-3.09,0.352-4.23,1.051c-1.139,0.7-1.709,1.811-1.709,3.33   c0,0.641,0.119,1.18,0.359,1.619c0.24,0.441,0.631,0.82,1.17,1.141c0.541,0.32,1.24,0.61,2.1,0.87   c0.861,0.261,1.93,0.55,3.211,0.87c2.119,0.52,3.949,1.041,5.49,1.561c1.539,0.52,2.809,1.13,3.809,1.829   c1,0.7,1.74,1.521,2.221,2.46c0.48,0.94,0.721,2.07,0.721,3.391c0,3-1.131,5.369-3.391,7.109S1203.059,409.601,1199.18,409.601z"
   fill="#4E4E4E" />
</g>
<g
   id="g612">
</g>
<g
   id="g614">
</g>
<g
   id="g616">
</g>
<g
   id="g618">
</g>
<g
   id="g620">
</g>
<g
   id="g622">
</g>
</svg>