<?xml version="1.0" encoding="UTF-8" standalone="no"?>
<svg
   xmlns:dc="http://purl.org/dc/elements/1.1/"
   xmlns:cc="http://creativecommons.org/ns#"
   xmlns:rdf="http://www.w3.org/1999/02/22-rdf-syntax-ns#"
   xmlns:svg="http://www.w3.org/2000/svg"
   xmlns="http://www.w3.org/2000/svg"
   viewBox="0 0 1706.6667 853.33331"
   height="853.33331"
   width="1706.6667"
   xml:space="preserve"
   id="svg3934"
   version="1.1"><metadata
     id="metadata3940"><rdf:RDF><cc:Work
         rdf:about=""><dc:format>image/svg+xml</dc:format><dc:type
           rdf:resource="http://purl.org/dc/dcmitype/StillImage" /><dc:title></dc:title></cc:Work></rdf:RDF></metadata><defs
     id="defs3938"><clipPath
       id="clipPath3950"
       clipPathUnits="userSpaceOnUse"><path
         id="path3948"
         d="M 0,640 H 1280 V 0 H 0 Z" /></clipPath><clipPath
       id="clipPath3958"
       clipPathUnits="userSpaceOnUse"><path
         id="path3956"
         d="m 132.932,451.202 h 230.675 v -89.15 H 132.932 Z" /></clipPath></defs><g
     transform="matrix(1.3333333,0,0,-1.3333333,0,853.33333)"
     id="g3942"><g
       id="g3944"><g
         clip-path="url(#clipPath3950)"
         id="g3946"><g
           id="g3952"><g
             id="g3954" /><g
             id="g3966"><g
               style="opacity:0"
               id="g3964"
               clip-path="url(#clipPath3958)"><g
                 id="g3962"
                 transform="translate(363.5571,406.6265)"><path
                   id="path3960"
                   style="fill:none;stroke:#4e4e4e;stroke-width:0.1;stroke-linecap:butt;stroke-linejoin:miter;stroke-miterlimit:4;stroke-dasharray:none;stroke-opacity:1"
                   d="m 0,0 c 0,-24.575 -51.554,-44.503 -115.186,-44.525 -63.631,-0.022 -115.276,19.872 -115.389,44.446 -0.112,24.575 51.35,44.538 114.982,44.604 C -51.961,44.59 -0.225,24.733 0,0.158" /></g></g></g></g><g
           transform="translate(58.5391,478.0107)"
           id="g3968"><path
             id="path3970"
             style="fill:none;stroke:#4e4e4e;stroke-width:6.24900007;stroke-linecap:round;stroke-linejoin:round;stroke-miterlimit:4;stroke-dasharray:none;stroke-opacity:1"
             d="m 0,0 c 0,-69.042 0,-138.085 11.451,-196.975 11.449,-58.89 34.349,-107.627 67.465,-146.531 33.115,-38.906 76.953,-68.317 121.573,-65.68 44.62,2.637 89.827,36.817 120.669,76.966 30.839,40.15 47.092,86.104 55.402,131.821 8.311,45.719 8.68,91.208 9.049,136.693" /></g><g
           transform="translate(250.79,571.3394)"
           id="g3972"><path
             id="path3974"
             style="fill:none;stroke:#4e4e4e;stroke-width:6.24900007;stroke-linecap:butt;stroke-linejoin:round;stroke-miterlimit:4;stroke-dasharray:none;stroke-opacity:1"
             d="m 0,0 c 106.16,0 192.222,-41.13 192.222,-91.867 0,-50.736 -86.062,-91.866 -192.222,-91.866 -106.161,0 -192.222,41.13 -192.222,91.866 C -192.222,-41.13 -106.161,0 0,0 Z" /></g></g></g><text
       id="text3978"
       style="font-variant:normal;font-weight:600;font-stretch:normal;font-size:140px;font-family:'Raleway SemiBold';-inkscape-font-specification:Raleway-SemiBold;writing-mode:lr-tb;fill:#4e4e4f;fill-opacity:1;fill-rule:nonzero;stroke:none"
       transform="matrix(1,0,0,-1,497.8516,430)"><tspan
         id="tspan3976"
         y="0"
         x="0 94.5 224.28 311.5 397.04001 475.29999 554.26001">AmpScan</tspan></text>
<text
       id="text3986"
       style="font-variant:normal;font-weight:600;font-stretch:normal;font-size:60px;font-family:'Raleway SemiBold';-inkscape-font-specification:Raleway-SemiBold;writing-mode:lr-tb;fill:#4e4e4f;fill-opacity:1;fill-rule:nonzero;stroke:none"
       transform="matrix(1,0,0,-1,497.8521,320)"><tspan
         id="tspan3980"
         y="0"
         x="0 45.119999 82.800003 118.5 154.32001 179.58 209.34 245.46001 282 302.88 336.12 371.82001 386.64001 420.48001 456.29999 490.14001 507.54001 539.64001 569.40002 583.91998 613.67999">Open-source analysis </tspan><tspan
         id="tspan3982"
         y="72"
         x="0 35.639999 55.740002 70.559998 100.32 136.86 159.3 180.174 214.01401 247.254 282.95401 297.77399 327.534 361.07401 394.914 430.73401 460.49399 475.314 495.11401 531.23401 552.23401">of surface scans for </tspan><tspan
         id="tspan3984"
         y="144"
         x="0 37.380001 58.259998 94.379997 124.14 146.16 181.98 217.44 239.46001 253.98 287.51999 317.28 332.10001 365.94 401.76001 439.98001 454.79999 499.92001 522.35999 544.38 580.20001 615.90002 637.91998 652.44 685.97998">Prosthetics and Orthotics</tspan></text>
</g></svg>