<?xml version="1.0" encoding="UTF-8" standalone="no"?>
<svg
   xmlns:dc="http://purl.org/dc/elements/1.1/"
   xmlns:cc="http://creativecommons.org/ns#"
   xmlns:rdf="http://www.w3.org/1999/02/22-rdf-syntax-ns#"
   xmlns:svg="http://www.w3.org/2000/svg"
   xmlns="http://www.w3.org/2000/svg"
   xml:space="preserve"
   enable-background="new 0 0 1280 531"
   viewBox="0 0 1280 531"
   height="531px"
   width="1280px"
   y="0px"
   x="0px"
   id="Layer_1"
   version="1.1"><metadata
   id="metadata303"><rdf:RDF><cc:Work
       rdf:about=""><dc:format>image/svg+xml</dc:format><dc:type
         rdf:resource="http://purl.org/dc/dcmitype/StillImage" /><dc:title></dc:title></cc:Work></rdf:RDF></metadata><defs
   id="defs301" />
<g
   id="layer1">
	
		<path
   d="   M363.557,178.374c0,24.575-51.554,44.503-115.186,44.525c-63.632,0.022-115.277-19.872-115.39-44.446   c-0.112-24.575,51.35-44.538,114.982-44.604c63.632-0.065,115.368,19.792,115.593,44.367"
   stroke-opacity="0"
   stroke-width="0.1"
   stroke="#4E4E4E"
   fill="none"
   id="path14" />
	
		<path
   d="   M58.539,106.989c0,69.042,0,138.085,11.451,196.975c11.45,58.891,34.349,107.627,67.465,146.531   c33.115,38.906,76.953,68.317,121.573,65.68c44.62-2.637,89.828-36.816,120.669-76.966c30.839-40.149,47.092-86.104,55.402-131.82   c8.311-45.719,8.68-91.208,9.049-136.694"
   stroke-linejoin="round"
   stroke-linecap="round"
   stroke-width="6.2492"
   stroke="#4E4E4E"
   fill="none"
   id="path4600" />
	
		<ellipse
   ry="91.866"
   rx="192.222"
   cy="105.527"
   cx="250.79"
   stroke-linejoin="round"
   stroke-width="6.2492"
   stroke="#4E4E4E"
   fill="none"
   id="path4550" />
</g>
<g
   id="g176">
	<path
   id="path162"
   d="M574.992,130.5h-52.08l-10.78,24.5h-14.42l44.38-98h13.86l44.52,98h-14.7L574.992,130.5z M570.092,119.3   l-21.14-48.02l-21.14,48.02H570.092z"
   fill="#4E4E4E" />
	<path
   id="path164"
   d="M728.081,88.22c5.46,5.414,8.19,13.44,8.19,24.08V155h-13.44v-41.16c0-7.186-1.658-12.6-4.97-16.24   c-3.314-3.64-8.05-5.46-14.21-5.46c-6.814,0-12.229,2.124-16.24,6.37c-4.014,4.249-6.021,10.338-6.021,18.27V155h-13.439v-41.16   c0-7.186-1.658-12.6-4.97-16.24c-3.314-3.64-8.051-5.46-14.21-5.46c-6.814,0-12.229,2.124-16.24,6.37   c-4.014,4.249-6.02,10.338-6.02,18.27V155h-13.44V80.8h12.88v11.06c2.706-3.826,6.252-6.742,10.64-8.75   c4.386-2.006,9.38-3.01,14.98-3.01c5.786,0,10.92,1.168,15.399,3.5c4.48,2.334,7.933,5.74,10.36,10.22   c2.8-4.292,6.696-7.652,11.69-10.08c4.991-2.426,10.615-3.64,16.869-3.64C715.223,80.1,722.621,82.808,728.081,88.22z"
   fill="#4E4E4E" />
	<path
   id="path166"
   d="M819.71,84.86c5.691,3.174,10.149,7.608,13.369,13.3c3.221,5.694,4.83,12.274,4.83,19.74   c0,7.468-1.609,14.07-4.83,19.81c-3.22,5.74-7.678,10.198-13.369,13.37c-5.694,3.174-12.135,4.76-19.32,4.76   c-5.32,0-10.198-1.026-14.63-3.08c-4.435-2.052-8.19-5.04-11.271-8.96v38.36H761.05V80.8h12.88v11.76   c2.985-4.106,6.766-7.21,11.34-9.31c4.572-2.1,9.612-3.15,15.12-3.15C807.575,80.1,814.016,81.688,819.71,84.86z M812.079,140.79   c3.78-2.192,6.767-5.272,8.961-9.24c2.191-3.966,3.289-8.516,3.289-13.65c0-5.132-1.098-9.682-3.289-13.65   c-2.194-3.966-5.181-7.022-8.961-9.17c-3.779-2.146-8.05-3.22-12.81-3.22c-4.668,0-8.89,1.098-12.67,3.29   c-3.78,2.194-6.769,5.25-8.96,9.17c-2.194,3.92-3.29,8.448-3.29,13.58c0,5.134,1.072,9.684,3.22,13.65   c2.146,3.968,5.132,7.048,8.96,9.24c3.826,2.194,8.072,3.29,12.74,3.29C804.029,144.08,808.3,142.984,812.079,140.79z"
   fill="#4E4E4E" />
	<path
   id="path168"
   d="M865.698,152.69c-6.86-2.286-12.25-5.25-16.17-8.89l5.18-10.92c3.732,3.36,8.516,6.09,14.35,8.19   c5.832,2.1,11.83,3.15,17.99,3.15c8.12,0,14.187-1.376,18.2-4.13c4.012-2.752,6.021-6.416,6.021-10.99c0-3.36-1.099-6.09-3.29-8.19   c-2.194-2.1-4.9-3.71-8.12-4.83c-3.221-1.12-7.771-2.38-13.65-3.78c-7.374-1.771-13.324-3.546-17.85-5.32   c-4.528-1.772-8.4-4.502-11.62-8.19c-3.22-3.686-4.83-8.656-4.83-14.91c0-5.226,1.376-9.94,4.13-14.14   c2.752-4.2,6.93-7.56,12.53-10.08c5.6-2.52,12.552-3.78,20.859-3.78c5.786,0,11.48,0.748,17.08,2.24   c5.601,1.494,10.406,3.64,14.42,6.44l-4.62,11.2c-4.107-2.612-8.493-4.596-13.159-5.95c-4.669-1.352-9.24-2.03-13.721-2.03   c-7.934,0-13.884,1.448-17.85,4.34c-3.968,2.894-5.95,6.628-5.95,11.2c0,3.36,1.12,6.09,3.36,8.19c2.24,2.1,5.016,3.734,8.33,4.9   c3.312,1.168,7.815,2.404,13.51,3.71c7.372,1.774,13.3,3.548,17.78,5.32c4.479,1.774,8.33,4.48,11.55,8.12s4.83,8.54,4.83,14.7   c0,5.134-1.4,9.824-4.2,14.07c-2.8,4.248-7.048,7.608-12.74,10.08c-5.693,2.474-12.693,3.71-21,3.71   C879.674,156.12,872.558,154.978,865.698,152.69z"
   fill="#4E4E4E" />
	<path
   id="path170"
   d="M955.576,150.94c-5.928-3.266-10.569-7.77-13.93-13.51c-3.36-5.74-5.04-12.25-5.04-19.53   c0-7.28,1.68-13.79,5.04-19.53c3.36-5.74,8.002-10.22,13.93-13.44c5.927-3.22,12.67-4.83,20.23-4.83   c6.72,0,12.716,1.354,17.99,4.06c5.271,2.708,9.355,6.628,12.25,11.76l-10.221,6.58c-2.334-3.546-5.228-6.206-8.68-7.98   c-3.454-1.772-7.28-2.66-11.479-2.66c-4.854,0-9.219,1.074-13.091,3.22c-3.874,2.148-6.908,5.204-9.1,9.17   c-2.194,3.968-3.29,8.518-3.29,13.65c0,5.228,1.096,9.824,3.29,13.79c2.191,3.968,5.226,7.024,9.1,9.17   c3.872,2.148,8.236,3.22,13.091,3.22c4.199,0,8.025-0.886,11.479-2.66c3.452-1.772,6.346-4.432,8.68-7.98l10.221,6.44   c-2.895,5.134-6.979,9.078-12.25,11.83c-5.274,2.754-11.271,4.13-17.99,4.13C968.246,155.84,961.503,154.208,955.576,150.94z"
   fill="#4E4E4E" />
	<path
   id="path172"
   d="M1074.016,87.66c5.46,5.04,8.19,12.554,8.19,22.54V155h-12.74v-9.8c-2.24,3.454-5.438,6.09-9.59,7.91   c-4.154,1.82-9.078,2.73-14.77,2.73c-8.309,0-14.959-2.006-19.95-6.02c-4.994-4.012-7.49-9.286-7.49-15.82   c0-6.532,2.38-11.782,7.14-15.75c4.761-3.966,12.32-5.95,22.681-5.95h21.279v-2.66c0-5.786-1.68-10.22-5.04-13.3   c-3.359-3.08-8.308-4.62-14.84-4.62c-4.388,0-8.68,0.724-12.88,2.17c-4.2,1.448-7.748,3.384-10.64,5.81l-5.601-10.08   c3.826-3.08,8.4-5.436,13.721-7.07c5.319-1.632,10.966-2.45,16.939-2.45C1060.692,80.1,1068.556,82.62,1074.016,87.66z    M1060.646,142.05c3.731-2.286,6.439-5.53,8.119-9.73v-10.36h-20.72c-11.388,0-17.08,3.828-17.08,11.48   c0,3.734,1.446,6.674,4.34,8.82c2.893,2.148,6.906,3.22,12.04,3.22C1052.478,145.48,1056.912,144.338,1060.646,142.05z"
   fill="#4E4E4E" />
	<path
   id="path174"
   d="M1169.216,88.29c5.552,5.46,8.33,13.464,8.33,24.01V155h-13.44v-41.16c0-7.186-1.728-12.6-5.18-16.24   c-3.454-3.64-8.4-5.46-14.84-5.46c-7.28,0-13.021,2.124-17.22,6.37c-4.2,4.249-6.301,10.338-6.301,18.27V155h-13.439V80.8h12.88V92   c2.706-3.826,6.37-6.766,10.99-8.82c4.62-2.052,9.87-3.08,15.75-3.08C1156.172,80.1,1163.662,82.83,1169.216,88.29z"
   fill="#4E4E4E" />
</g>
<g
   id="g296">
	<path
   id="path178"
   d="M511.742,262.57c-3.381-1.86-6.021-4.41-7.92-7.65c-1.9-3.24-2.85-6.879-2.85-10.92   c0-4.04,0.95-7.68,2.85-10.92c1.899-3.24,4.539-5.79,7.92-7.65c3.379-1.86,7.149-2.79,11.31-2.79c4.16,0,7.91,0.92,11.25,2.76   c3.339,1.84,5.97,4.391,7.89,7.65c1.92,3.261,2.88,6.911,2.88,10.95c0,4.041-0.96,7.69-2.88,10.95c-1.92,3.26-4.55,5.811-7.89,7.65   c-3.34,1.84-7.09,2.76-11.25,2.76C518.892,265.36,515.122,264.431,511.742,262.57z M532.052,259.15c2.679-1.5,4.779-3.579,6.3-6.24   c1.52-2.66,2.28-5.63,2.28-8.91c0-3.279-0.76-6.25-2.28-8.91c-1.521-2.66-3.621-4.74-6.3-6.24c-2.681-1.5-5.681-2.25-9-2.25   c-3.321,0-6.33,0.75-9.03,2.25c-2.7,1.5-4.82,3.58-6.36,6.24c-1.541,2.661-2.31,5.631-2.31,8.91c0,3.28,0.77,6.25,2.31,8.91   c1.54,2.661,3.66,4.74,6.36,6.24c2.7,1.5,5.709,2.25,9.03,2.25C526.372,261.4,529.372,260.65,532.052,259.15z"
   fill="#4E4E4E" />
	<path
   id="path180"
   d="M578.432,235.21c2.4,1.341,4.279,3.23,5.64,5.67c1.359,2.44,2.04,5.22,2.04,8.34   c0,3.16-0.681,5.96-2.04,8.4c-1.36,2.44-3.23,4.33-5.61,5.67c-2.38,1.341-5.07,2.01-8.07,2.01c-2.561,0-4.871-0.529-6.93-1.59   c-2.061-1.06-3.75-2.61-5.07-4.65v17.58h-4.26v-43.2h4.08v6.24c1.28-2.08,2.97-3.68,5.07-4.8c2.1-1.119,4.47-1.68,7.11-1.68   C573.351,233.201,576.031,233.871,578.432,235.21z M576.091,259.991c1.8-1.02,3.21-2.47,4.23-4.35c1.02-1.88,1.53-4.02,1.53-6.42   c0-2.4-0.51-4.53-1.53-6.39s-2.43-3.31-4.23-4.35c-1.8-1.04-3.8-1.56-6-1.56c-2.241,0-4.25,0.521-6.03,1.56   c-1.78,1.041-3.18,2.49-4.2,4.35s-1.53,3.99-1.53,6.39c0,2.4,0.51,4.54,1.53,6.42c1.02,1.88,2.42,3.33,4.2,4.35   c1.779,1.02,3.789,1.53,6.03,1.53C572.291,261.521,574.292,261.01,576.091,259.991z"
   fill="#4E4E4E" />
	<path
   id="path182"
   d="M622.291,250.541h-26.4c0.24,3.28,1.5,5.931,3.78,7.95c2.28,2.02,5.16,3.03,8.64,3.03   c1.959,0,3.759-0.35,5.4-1.05c1.64-0.7,3.06-1.73,4.26-3.09l2.4,2.76c-1.4,1.68-3.15,2.96-5.25,3.84c-2.1,0.88-4.41,1.32-6.93,1.32   c-3.24,0-6.11-0.69-8.61-2.07c-2.5-1.38-4.45-3.29-5.85-5.73c-1.4-2.439-2.1-5.199-2.1-8.28c0-3.08,0.669-5.84,2.01-8.28   c1.34-2.439,3.18-4.34,5.52-5.7c2.34-1.359,4.97-2.04,7.89-2.04c2.919,0,5.54,0.681,7.86,2.04c2.319,1.36,4.14,3.25,5.46,5.67   c1.32,2.42,1.98,5.19,1.98,8.31L622.291,250.541z M599.401,239.771c-2.061,1.94-3.23,4.47-3.51,7.59h22.38   c-0.28-3.12-1.45-5.649-3.51-7.59c-2.061-1.94-4.63-2.91-7.71-2.91C604.011,236.86,601.461,237.831,599.401,239.771z"
   fill="#4E4E4E" />
	<path
   id="path184"
   d="M656.58,236.65c2.34,2.301,3.51,5.65,3.51,10.05V265h-4.26v-17.88c0-3.279-0.82-5.78-2.461-7.5   c-1.641-1.72-3.98-2.58-7.02-2.58c-3.4,0-6.089,1.011-8.069,3.03c-1.98,2.021-2.97,4.811-2.97,8.37V265h-4.26v-31.56h4.08v5.82   c1.16-1.92,2.77-3.41,4.83-4.47c2.059-1.06,4.45-1.59,7.168-1.59C651.09,233.201,654.24,234.351,656.58,236.65z"
   fill="#4E4E4E" />
	<path
   id="path186"
   d="M669.33,246.88h15.721v3.72H669.33V246.88z"
   fill="#4E4E4E" />
	<path
   id="path188"
   d="M695.699,264.19c-2.34-0.74-4.17-1.669-5.49-2.79l1.92-3.36c1.32,1.041,2.979,1.89,4.98,2.55   c2,0.66,4.08,0.99,6.24,0.99c2.879,0,5.01-0.45,6.389-1.35c1.381-0.9,2.07-2.169,2.07-3.81c0-1.16-0.381-2.07-1.141-2.73   s-1.719-1.16-2.879-1.5c-1.16-0.339-2.699-0.669-4.621-0.99c-2.559-0.48-4.619-0.97-6.18-1.47c-1.559-0.5-2.891-1.35-3.99-2.55   c-1.1-1.2-1.648-2.859-1.648-4.98c0-2.64,1.1-4.8,3.299-6.48c2.199-1.68,5.26-2.52,9.18-2.52c2.041,0,4.08,0.27,6.121,0.81   c2.039,0.54,3.719,1.251,5.039,2.13l-1.859,3.42c-2.602-1.8-5.699-2.7-9.301-2.7c-2.721,0-4.77,0.48-6.148,1.44   c-1.381,0.96-2.07,2.22-2.07,3.78c0,1.2,0.389,2.16,1.17,2.88c0.779,0.72,1.748,1.25,2.91,1.59c1.158,0.34,2.76,0.69,4.799,1.05   c2.521,0.48,4.539,0.96,6.061,1.44c1.52,0.48,2.82,1.3,3.9,2.46c1.08,1.161,1.619,2.76,1.619,4.8c0,2.76-1.15,4.95-3.449,6.57   c-2.301,1.62-5.49,2.43-9.57,2.43C700.488,265.3,698.039,264.931,695.699,264.19z"
   fill="#4E4E4E" />
	<path
   id="path190"
   d="M728.609,263.23c-2.441-1.38-4.361-3.29-5.76-5.73c-1.402-2.439-2.102-5.199-2.102-8.28   c0-3.08,0.699-5.84,2.102-8.28c1.398-2.439,3.318-4.34,5.76-5.7c2.439-1.359,5.18-2.04,8.219-2.04s5.781,0.681,8.221,2.04   c2.439,1.36,4.35,3.26,5.73,5.7c1.379,2.44,2.07,5.2,2.07,8.28c0,3.081-0.691,5.84-2.07,8.28c-1.381,2.44-3.291,4.35-5.73,5.73   s-5.182,2.07-8.221,2.07S731.049,264.61,728.609,263.23z M742.859,259.991c1.779-1.02,3.17-2.47,4.17-4.35   c0.998-1.88,1.5-4.02,1.5-6.42c0-2.4-0.502-4.54-1.5-6.42c-1-1.879-2.391-3.33-4.17-4.35c-1.781-1.02-3.791-1.53-6.031-1.53   s-4.25,0.51-6.029,1.53c-1.781,1.02-3.18,2.47-4.199,4.35c-1.021,1.881-1.531,4.02-1.531,6.42c0,2.4,0.51,4.54,1.531,6.42   c1.02,1.88,2.418,3.33,4.199,4.35c1.779,1.02,3.789,1.53,6.029,1.53S741.078,261.01,742.859,259.991z"
   fill="#4E4E4E" />
	<path
   id="path192"
   d="M789.988,233.44V265h-4.08v-5.76c-1.119,1.92-2.66,3.41-4.619,4.47c-1.961,1.061-4.199,1.59-6.721,1.59   c-4.119,0-7.369-1.149-9.75-3.45c-2.379-2.3-3.57-5.67-3.57-10.11v-18.3h4.262v17.88c0,3.321,0.818,5.841,2.459,7.56   c1.641,1.72,3.98,2.58,7.02,2.58c3.32,0,5.941-1.01,7.861-3.03c1.92-2.02,2.879-4.83,2.879-8.43v-16.56H789.988z"
   fill="#4E4E4E" />
	<path
   id="path194"
   d="M810.479,234.82c1.979-1.08,4.43-1.62,7.35-1.62v4.14l-1.02-0.06c-3.322,0-5.922,1.02-7.801,3.06   c-1.881,2.04-2.82,4.9-2.82,8.58V265h-4.26v-31.56h4.08v6.18C807.008,237.501,808.498,235.9,810.479,234.82z"
   fill="#4E4E4E" />
	<path
   id="path196"
   d="M829.918,263.26c-2.459-1.359-4.391-3.27-5.789-5.73c-1.402-2.46-2.102-5.229-2.102-8.31   c0-3.08,0.699-5.84,2.102-8.28c1.398-2.439,3.33-4.34,5.789-5.7c2.461-1.359,5.25-2.04,8.369-2.04c2.721,0,5.15,0.53,7.291,1.59   c2.139,1.06,3.83,2.61,5.07,4.65l-3.18,2.16c-1.041-1.56-2.361-2.73-3.961-3.51c-1.6-0.78-3.34-1.17-5.221-1.17   c-2.279,0-4.33,0.51-6.148,1.53c-1.82,1.02-3.24,2.47-4.26,4.35c-1.021,1.881-1.531,4.02-1.531,6.42c0,2.44,0.51,4.59,1.531,6.45   c1.02,1.86,2.439,3.3,4.26,4.32c1.818,1.02,3.869,1.53,6.148,1.53c1.881,0,3.621-0.38,5.221-1.14c1.6-0.759,2.92-1.92,3.961-3.48   l3.18,2.16c-1.24,2.04-2.939,3.59-5.1,4.65c-2.16,1.061-4.582,1.59-7.262,1.59C835.168,265.3,832.379,264.621,829.918,263.26z"
   fill="#4E4E4E" />
	<path
   id="path198"
   d="M885.928,250.541h-26.4c0.24,3.28,1.5,5.931,3.781,7.95c2.279,2.02,5.16,3.03,8.641,3.03   c1.959,0,3.758-0.35,5.398-1.05c1.641-0.7,3.061-1.73,4.26-3.09l2.4,2.76c-1.4,1.68-3.15,2.96-5.25,3.84   c-2.1,0.88-4.41,1.32-6.93,1.32c-3.24,0-6.111-0.69-8.609-2.07c-2.5-1.38-4.451-3.29-5.85-5.73   c-1.402-2.439-2.102-5.199-2.102-8.28c0-3.08,0.67-5.84,2.01-8.28c1.34-2.439,3.182-4.34,5.521-5.7   c2.34-1.359,4.969-2.04,7.889-2.04s5.541,0.681,7.861,2.04c2.318,1.36,4.139,3.25,5.459,5.67c1.32,2.42,1.98,5.19,1.98,8.31   L885.928,250.541z M863.039,239.771c-2.061,1.94-3.23,4.47-3.512,7.59h22.381c-0.279-3.12-1.451-5.649-3.51-7.59   c-2.061-1.94-4.631-2.91-7.711-2.91C867.648,236.86,865.098,237.831,863.039,239.771z"
   fill="#4E4E4E" />
	<path
   id="path200"
   d="M930.928,236.291c2.199,2.061,3.299,5.11,3.299,9.15V265h-4.08v-4.92c-0.959,1.641-2.369,2.92-4.229,3.84   c-1.861,0.921-4.072,1.38-6.631,1.38c-3.52,0-6.32-0.84-8.4-2.52c-2.08-1.68-3.119-3.9-3.119-6.66c0-2.68,0.969-4.839,2.91-6.48   c1.939-1.64,5.029-2.46,9.27-2.46h10.02v-1.92c0-2.719-0.76-4.79-2.279-6.21c-1.521-1.419-3.74-2.13-6.66-2.13   c-2,0-3.92,0.33-5.76,0.99c-1.84,0.66-3.42,1.57-4.74,2.73l-1.92-3.18c1.6-1.359,3.52-2.409,5.76-3.15   c2.24-0.74,4.6-1.11,7.08-1.11C925.566,233.201,928.727,234.231,930.928,236.291z M926.127,260.291c1.719-1.1,3-2.69,3.84-4.77   v-5.16h-9.9c-5.398,0-8.1,1.881-8.1,5.64c0,1.84,0.699,3.291,2.1,4.35c1.4,1.06,3.361,1.59,5.881,1.59   C922.348,261.94,924.406,261.391,926.127,260.291z"
   fill="#4E4E4E" />
	<path
   id="path202"
   d="M971.336,236.65c2.34,2.301,3.512,5.65,3.512,10.05V265h-4.262v-17.88c0-3.279-0.82-5.78-2.459-7.5   c-1.641-1.72-3.98-2.58-7.02-2.58c-3.4,0-6.09,1.011-8.07,3.03c-1.98,2.021-2.971,4.811-2.971,8.37V265h-4.26v-31.56h4.08v5.82   c1.16-1.92,2.77-3.41,4.83-4.47c2.061-1.06,4.449-1.59,7.17-1.59C965.848,233.201,968.996,234.351,971.336,236.65z"
   fill="#4E4E4E" />
	<path
   id="path204"
   d="M1006.945,236.291c2.199,2.061,3.301,5.11,3.301,9.15V265h-4.08v-4.92c-0.961,1.641-2.371,2.92-4.23,3.84   c-1.859,0.921-4.07,1.38-6.629,1.38c-3.521,0-6.322-0.84-8.4-2.52c-2.08-1.68-3.121-3.9-3.121-6.66c0-2.68,0.971-4.839,2.91-6.48   c1.939-1.64,5.029-2.46,9.271-2.46h10.02v-1.92c0-2.719-0.762-4.79-2.281-6.21c-1.52-1.419-3.74-2.13-6.66-2.13   c-2,0-3.92,0.33-5.76,0.99c-1.84,0.66-3.42,1.57-4.74,2.73l-1.92-3.18c1.6-1.359,3.52-2.409,5.762-3.15   c2.238-0.74,4.598-1.11,7.08-1.11C1001.586,233.201,1004.746,234.231,1006.945,236.291z M1002.146,260.291   c1.719-1.1,3-2.69,3.84-4.77v-5.16h-9.9c-5.4,0-8.1,1.881-8.1,5.64c0,1.84,0.699,3.291,2.1,4.35c1.4,1.06,3.359,1.59,5.881,1.59   C998.365,261.94,1000.426,261.391,1002.146,260.291z"
   fill="#4E4E4E" />
	<path
   id="path206"
   d="M1021.826,220.48h4.26V265h-4.26V220.48z"
   fill="#4E4E4E" />
	<path
   id="path208"
   d="M1064.486,233.44l-15.781,35.34c-1.279,2.96-2.76,5.06-4.439,6.3s-3.699,1.86-6.061,1.86   c-1.52,0-2.939-0.239-4.26-0.72s-2.459-1.2-3.42-2.16l1.98-3.18c1.6,1.6,3.52,2.399,5.76,2.399c1.439,0,2.67-0.399,3.689-1.2   c1.021-0.801,1.971-2.16,2.852-4.08l1.379-3.06l-14.1-31.5h4.439l11.881,26.82l11.879-26.82H1064.486z"
   fill="#4E4E4E" />
	<path
   id="path210"
   d="M1071.234,264.19c-2.34-0.74-4.17-1.669-5.49-2.79l1.922-3.36c1.318,1.041,2.979,1.89,4.979,2.55   c2,0.66,4.08,0.99,6.24,0.99c2.881,0,5.01-0.45,6.391-1.35c1.379-0.9,2.07-2.169,2.07-3.81c0-1.16-0.381-2.07-1.141-2.73   s-1.721-1.16-2.881-1.5c-1.16-0.339-2.699-0.669-4.619-0.99c-2.561-0.48-4.619-0.97-6.18-1.47c-1.561-0.5-2.891-1.35-3.99-2.55   c-1.102-1.2-1.65-2.859-1.65-4.98c0-2.64,1.1-4.8,3.301-6.48c2.199-1.68,5.26-2.52,9.18-2.52c2.039,0,4.08,0.27,6.119,0.81   c2.041,0.54,3.721,1.251,5.041,2.13l-1.859,3.42c-2.602-1.8-5.701-2.7-9.301-2.7c-2.721,0-4.77,0.48-6.15,1.44   c-1.379,0.96-2.07,2.22-2.07,3.78c0,1.2,0.391,2.16,1.17,2.88c0.781,0.72,1.75,1.25,2.91,1.59c1.16,0.34,2.76,0.69,4.801,1.05   c2.52,0.48,4.539,0.96,6.061,1.44c1.52,0.48,2.818,1.3,3.898,2.46c1.08,1.161,1.621,2.76,1.621,4.8c0,2.76-1.15,4.95-3.451,6.57   s-5.488,2.43-9.568,2.43C1076.025,265.3,1073.574,264.931,1071.234,264.19z"
   fill="#4E4E4E" />
	<path
   id="path212"
   d="M1099.404,225.641c-0.6-0.6-0.898-1.32-0.898-2.16c0-0.8,0.299-1.5,0.898-2.1c0.602-0.6,1.34-0.9,2.221-0.9   c0.879,0,1.619,0.291,2.221,0.87c0.6,0.58,0.898,1.27,0.898,2.07c0,0.88-0.299,1.62-0.898,2.22c-0.602,0.6-1.342,0.9-2.221,0.9   C1100.744,226.541,1100.006,226.241,1099.404,225.641z M1099.465,233.44h4.26V265h-4.26V233.44z"
   fill="#4E4E4E" />
	<path
   id="path214"
   d="M1116.715,264.19c-2.34-0.74-4.17-1.669-5.49-2.79l1.922-3.36c1.318,1.041,2.979,1.89,4.979,2.55   c2,0.66,4.08,0.99,6.24,0.99c2.881,0,5.01-0.45,6.391-1.35c1.379-0.9,2.07-2.169,2.07-3.81c0-1.16-0.381-2.07-1.141-2.73   s-1.721-1.16-2.881-1.5c-1.16-0.339-2.699-0.669-4.619-0.99c-2.561-0.48-4.619-0.97-6.18-1.47c-1.561-0.5-2.891-1.35-3.99-2.55   c-1.102-1.2-1.65-2.859-1.65-4.98c0-2.64,1.1-4.8,3.301-6.48c2.199-1.68,5.26-2.52,9.18-2.52c2.039,0,4.08,0.27,6.119,0.81   c2.041,0.54,3.721,1.251,5.041,2.13l-1.859,3.42c-2.602-1.8-5.701-2.7-9.301-2.7c-2.721,0-4.77,0.48-6.15,1.44   c-1.379,0.96-2.07,2.22-2.07,3.78c0,1.2,0.391,2.16,1.17,2.88c0.781,0.72,1.75,1.25,2.91,1.59c1.16,0.34,2.76,0.69,4.801,1.05   c2.52,0.48,4.539,0.96,6.061,1.44c1.52,0.48,2.818,1.3,3.898,2.46c1.08,1.161,1.621,2.76,1.621,4.8c0,2.76-1.15,4.95-3.451,6.57   s-5.488,2.43-9.568,2.43C1121.506,265.3,1119.055,264.931,1116.715,264.19z"
   fill="#4E4E4E" />
	<path
   id="path216"
   d="M508.472,335.23c-2.44-1.38-4.36-3.289-5.76-5.73c-1.4-2.439-2.1-5.199-2.1-8.279s0.7-5.84,2.1-8.28   c1.4-2.439,3.32-4.34,5.76-5.7c2.439-1.359,5.18-2.039,8.22-2.039c3.04,0,5.78,0.68,8.22,2.039c2.439,1.36,4.35,3.261,5.73,5.7   c1.38,2.44,2.07,5.2,2.07,8.28s-0.69,5.84-2.07,8.279c-1.38,2.441-3.291,4.351-5.73,5.73c-2.44,1.38-5.181,2.07-8.22,2.07   C513.652,337.301,510.912,336.61,508.472,335.23z M522.722,331.99c1.779-1.02,3.169-2.469,4.17-4.35c1-1.88,1.5-4.02,1.5-6.42   s-0.5-4.539-1.5-6.42c-1-1.88-2.391-3.33-4.17-4.35c-1.78-1.021-3.791-1.531-6.03-1.531c-2.24,0-4.25,0.511-6.03,1.531   c-1.78,1.02-3.18,2.47-4.2,4.35c-1.02,1.881-1.53,4.02-1.53,6.42s0.51,4.54,1.53,6.42c1.02,1.881,2.42,3.33,4.2,4.35   c1.779,1.02,3.79,1.53,6.03,1.53C518.932,333.521,520.942,333.01,522.722,331.99z"
   fill="#4E4E4E" />
	<path
   id="path218"
   d="M547.682,297.28c-0.94,1.001-1.41,2.481-1.41,4.44v3.72h9.72v3.601h-9.6V337h-4.26v-27.959h-5.64v-3.601   h5.64v-3.899c0-2.881,0.83-5.16,2.49-6.84c1.66-1.681,4.01-2.521,7.05-2.521c1.2,0,2.359,0.171,3.48,0.51   c1.119,0.341,2.06,0.831,2.82,1.47l-1.44,3.18c-1.24-1.039-2.8-1.56-4.68-1.56C550.012,295.78,548.622,296.281,547.682,297.28z"
   fill="#4E4E4E" />
	<path
   id="path220"
   d="M578.581,336.19c-2.34-0.739-4.17-1.669-5.49-2.79l1.92-3.359c1.32,1.04,2.979,1.89,4.98,2.549   c2,0.66,4.08,0.99,6.24,0.99c2.88,0,5.01-0.449,6.39-1.35c1.38-0.9,2.07-2.17,2.07-3.811c0-1.159-0.381-2.069-1.14-2.729   c-0.76-0.66-1.72-1.159-2.88-1.5c-1.161-0.339-2.7-0.669-4.62-0.989c-2.561-0.48-4.62-0.971-6.18-1.471s-2.89-1.35-3.99-2.55   c-1.101-1.2-1.65-2.859-1.65-4.979c0-2.641,1.1-4.801,3.3-6.48c2.199-1.68,5.259-2.52,9.18-2.52c2.04,0,4.08,0.27,6.12,0.809   c2.04,0.541,3.72,1.252,5.04,2.131l-1.86,3.42c-2.601-1.801-5.7-2.7-9.3-2.7c-2.721,0-4.77,0.479-6.15,1.44   c-1.38,0.959-2.07,2.22-2.07,3.779c0,1.2,0.39,2.16,1.17,2.881c0.78,0.72,1.75,1.25,2.91,1.59c1.16,0.34,2.76,0.689,4.8,1.05   c2.52,0.479,4.54,0.96,6.06,1.44c1.52,0.479,2.82,1.3,3.9,2.459c1.08,1.161,1.62,2.76,1.62,4.801c0,2.76-1.15,4.949-3.45,6.57   c-2.301,1.619-5.49,2.43-9.57,2.43C583.371,337.301,580.921,336.932,578.581,336.19z"
   fill="#4E4E4E" />
	<path
   id="path222"
   d="M635.25,305.44V337h-4.08v-5.76c-1.12,1.92-2.661,3.41-4.62,4.471c-1.96,1.061-4.2,1.59-6.72,1.59   c-4.12,0-7.371-1.15-9.75-3.45c-2.38-2.3-3.57-5.67-3.57-10.11v-18.3h4.26v17.88c0,3.32,0.819,5.841,2.46,7.561   c1.64,1.72,3.98,2.58,7.02,2.58c3.32,0,5.94-1.01,7.86-3.03c1.92-2.02,2.88-4.83,2.88-8.431v-16.56H635.25z"
   fill="#4E4E4E" />
	<path
   id="path224"
   d="M655.74,306.82c1.98-1.08,4.43-1.619,7.35-1.619v4.139l-1.02-0.06c-3.32,0-5.92,1.021-7.801,3.06   c-1.879,2.041-2.818,4.9-2.818,8.58V337h-4.26v-31.56h4.078v6.181C652.27,309.501,653.76,307.9,655.74,306.82z"
   fill="#4E4E4E" />
	<path
   id="path226"
   d="M677.52,297.28c-0.941,1.001-1.41,2.481-1.41,4.44v3.72h9.719v3.601h-9.6V337h-4.26v-27.959h-5.641v-3.601   h5.641v-3.899c0-2.881,0.83-5.16,2.49-6.84c1.66-1.681,4.01-2.521,7.051-2.521c1.199,0,2.359,0.171,3.479,0.51   c1.121,0.341,2.061,0.831,2.82,1.47l-1.439,3.18c-1.24-1.039-2.801-1.56-4.68-1.56C679.85,295.78,678.459,296.281,677.52,297.28z"
   fill="#4E4E4E" />
	<path
   id="path228"
   d="M711.51,308.291c2.199,2.061,3.299,5.109,3.299,9.149V337h-4.08v-4.92c-0.959,1.641-2.369,2.921-4.229,3.84   c-1.861,0.922-4.072,1.381-6.631,1.381c-3.52,0-6.32-0.84-8.4-2.521c-2.08-1.68-3.119-3.899-3.119-6.659   c0-2.68,0.969-4.84,2.91-6.48c1.939-1.64,5.029-2.46,9.27-2.46h10.02v-1.921c0-2.719-0.76-4.789-2.279-6.209   c-1.521-1.42-3.74-2.131-6.66-2.131c-2,0-3.92,0.33-5.76,0.99s-3.42,1.57-4.74,2.73l-1.92-3.18c1.6-1.359,3.52-2.41,5.76-3.15   s4.6-1.109,7.08-1.109C706.148,305.201,709.309,306.23,711.51,308.291z M706.709,332.291c1.719-1.1,3-2.69,3.84-4.771v-5.16h-9.9   c-5.398,0-8.1,1.881-8.1,5.64c0,1.841,0.699,3.291,2.1,4.351s3.361,1.59,5.881,1.59C702.93,333.94,704.988,333.391,706.709,332.291   z"
   fill="#4E4E4E" />
	<path
   id="path230"
   d="M731.219,335.26c-2.459-1.359-4.391-3.27-5.789-5.729c-1.402-2.46-2.102-5.229-2.102-8.31   s0.699-5.84,2.102-8.28c1.398-2.439,3.33-4.34,5.789-5.7c2.461-1.359,5.25-2.039,8.369-2.039c2.721,0,5.15,0.529,7.291,1.59   c2.139,1.06,3.83,2.609,5.07,4.649l-3.18,2.16c-1.041-1.56-2.361-2.729-3.961-3.511c-1.6-0.779-3.34-1.17-5.221-1.17   c-2.279,0-4.33,0.511-6.148,1.531c-1.82,1.02-3.24,2.47-4.26,4.35c-1.021,1.881-1.531,4.02-1.531,6.42   c0,2.439,0.51,4.59,1.531,6.449c1.02,1.86,2.439,3.301,4.26,4.32c1.818,1.02,3.869,1.53,6.148,1.53c1.881,0,3.621-0.38,5.221-1.14   s2.92-1.92,3.961-3.48l3.18,2.16c-1.24,2.04-2.939,3.59-5.1,4.65s-4.582,1.59-7.262,1.59   C736.469,337.301,733.68,336.621,731.219,335.26z"
   fill="#4E4E4E" />
	<path
   id="path232"
   d="M787.229,322.541h-26.4c0.24,3.279,1.5,5.93,3.781,7.949c2.279,2.021,5.16,3.03,8.641,3.03   c1.959,0,3.758-0.35,5.398-1.05c1.641-0.699,3.061-1.73,4.26-3.09l2.4,2.76c-1.4,1.68-3.15,2.961-5.25,3.84   c-2.1,0.881-4.41,1.32-6.93,1.32c-3.24,0-6.111-0.69-8.609-2.07c-2.5-1.38-4.451-3.289-5.85-5.73   c-1.402-2.439-2.102-5.199-2.102-8.279s0.67-5.84,2.01-8.28c1.34-2.439,3.182-4.34,5.521-5.7c2.34-1.359,4.969-2.039,7.889-2.039   s5.541,0.68,7.861,2.039c2.318,1.36,4.139,3.25,5.459,5.67c1.32,2.421,1.98,5.19,1.98,8.311L787.229,322.541z M764.34,311.771   c-2.061,1.94-3.23,4.47-3.512,7.59h22.381c-0.279-3.12-1.451-5.649-3.51-7.59c-2.061-1.94-4.631-2.91-7.711-2.91   C768.949,308.86,766.398,309.83,764.34,311.771z"
   fill="#4E4E4E" />
	<path
   id="path234"
   d="M812.818,336.19c-2.34-0.739-4.17-1.669-5.49-2.79l1.92-3.359c1.32,1.04,2.979,1.89,4.98,2.549   c2,0.66,4.08,0.99,6.24,0.99c2.879,0,5.01-0.449,6.389-1.35c1.381-0.9,2.07-2.17,2.07-3.811c0-1.159-0.381-2.069-1.141-2.729   s-1.719-1.159-2.879-1.5c-1.16-0.339-2.699-0.669-4.621-0.989c-2.559-0.48-4.619-0.971-6.18-1.471c-1.559-0.5-2.891-1.35-3.99-2.55   s-1.648-2.859-1.648-4.979c0-2.641,1.1-4.801,3.299-6.48s5.26-2.52,9.18-2.52c2.041,0,4.08,0.27,6.121,0.809   c2.039,0.541,3.719,1.252,5.039,2.131l-1.859,3.42c-2.602-1.801-5.699-2.7-9.301-2.7c-2.721,0-4.77,0.479-6.148,1.44   c-1.381,0.959-2.07,2.22-2.07,3.779c0,1.2,0.389,2.16,1.17,2.881c0.779,0.72,1.748,1.25,2.91,1.59   c1.158,0.34,2.76,0.689,4.799,1.05c2.521,0.479,4.539,0.96,6.061,1.44c1.52,0.479,2.82,1.3,3.9,2.459   c1.08,1.161,1.619,2.76,1.619,4.801c0,2.76-1.15,4.949-3.449,6.57c-2.301,1.619-5.49,2.43-9.57,2.43   C817.607,337.301,815.158,336.932,812.818,336.19z"
   fill="#4E4E4E" />
	<path
   id="path236"
   d="M845.758,335.26c-2.459-1.359-4.391-3.27-5.789-5.729c-1.402-2.46-2.102-5.229-2.102-8.31   s0.699-5.84,2.102-8.28c1.398-2.439,3.33-4.34,5.789-5.7c2.461-1.359,5.25-2.039,8.369-2.039c2.721,0,5.15,0.529,7.291,1.59   c2.139,1.06,3.83,2.609,5.07,4.649l-3.18,2.16c-1.041-1.56-2.361-2.729-3.961-3.511c-1.6-0.779-3.34-1.17-5.221-1.17   c-2.279,0-4.33,0.511-6.148,1.531c-1.82,1.02-3.24,2.47-4.26,4.35c-1.021,1.881-1.531,4.02-1.531,6.42   c0,2.439,0.51,4.59,1.531,6.449c1.02,1.86,2.439,3.301,4.26,4.32c1.818,1.02,3.869,1.53,6.148,1.53c1.881,0,3.621-0.38,5.221-1.14   s2.92-1.92,3.961-3.48l3.18,2.16c-1.24,2.04-2.939,3.59-5.1,4.65s-4.582,1.59-7.262,1.59   C851.008,337.301,848.219,336.621,845.758,335.26z"
   fill="#4E4E4E" />
	<path
   id="path238"
   d="M895.348,308.291c2.199,2.061,3.299,5.109,3.299,9.149V337h-4.08v-4.92   c-0.959,1.641-2.369,2.921-4.229,3.84c-1.861,0.922-4.072,1.381-6.631,1.381c-3.52,0-6.32-0.84-8.4-2.521   c-2.08-1.68-3.119-3.899-3.119-6.659c0-2.68,0.969-4.84,2.91-6.48c1.939-1.64,5.029-2.46,9.27-2.46h10.02v-1.921   c0-2.719-0.76-4.789-2.279-6.209c-1.521-1.42-3.74-2.131-6.66-2.131c-2,0-3.92,0.33-5.76,0.99s-3.42,1.57-4.74,2.73l-1.92-3.18   c1.6-1.359,3.52-2.41,5.76-3.15s4.6-1.109,7.08-1.109C889.986,305.201,893.146,306.23,895.348,308.291z M890.547,332.291   c1.719-1.1,3-2.69,3.84-4.771v-5.16h-9.9c-5.398,0-8.1,1.881-8.1,5.64c0,1.841,0.699,3.291,2.1,4.351s3.361,1.59,5.881,1.59   C886.768,333.94,888.826,333.391,890.547,332.291z"
   fill="#4E4E4E" />
	<path
   id="path240"
   d="M935.756,308.65c2.34,2.301,3.512,5.65,3.512,10.051V337h-4.262v-17.879c0-3.279-0.82-5.78-2.459-7.5   c-1.641-1.721-3.98-2.58-7.02-2.58c-3.4,0-6.09,1.01-8.07,3.029c-1.98,2.021-2.971,4.811-2.971,8.37V337h-4.26v-31.56h4.08v5.819   c1.16-1.92,2.77-3.409,4.83-4.469c2.061-1.061,4.449-1.59,7.17-1.59C930.268,305.201,933.416,306.351,935.756,308.65z"
   fill="#4E4E4E" />
	<path
   id="path242"
   d="M951.955,336.19c-2.34-0.739-4.17-1.669-5.49-2.79l1.922-3.359c1.318,1.04,2.979,1.89,4.979,2.549   c2,0.66,4.08,0.99,6.24,0.99c2.881,0,5.01-0.449,6.391-1.35c1.379-0.9,2.07-2.17,2.07-3.811c0-1.159-0.381-2.069-1.141-2.729   s-1.721-1.159-2.881-1.5c-1.16-0.339-2.699-0.669-4.619-0.989c-2.561-0.48-4.619-0.971-6.18-1.471s-2.891-1.35-3.99-2.55   c-1.102-1.2-1.65-2.859-1.65-4.979c0-2.641,1.1-4.801,3.301-6.48c2.199-1.68,5.26-2.52,9.18-2.52c2.039,0,4.08,0.27,6.119,0.809   c2.041,0.541,3.721,1.252,5.041,2.131l-1.859,3.42c-2.602-1.801-5.701-2.7-9.301-2.7c-2.721,0-4.77,0.479-6.15,1.44   c-1.379,0.959-2.07,2.22-2.07,3.779c0,1.2,0.391,2.16,1.17,2.881c0.781,0.72,1.75,1.25,2.91,1.59s2.76,0.689,4.801,1.05   c2.52,0.479,4.539,0.96,6.061,1.44c1.52,0.479,2.818,1.3,3.898,2.459c1.08,1.161,1.621,2.76,1.621,4.801   c0,2.76-1.15,4.949-3.451,6.57c-2.301,1.619-5.488,2.43-9.568,2.43C956.746,337.301,954.295,336.932,951.955,336.19z"
   fill="#4E4E4E" />
	<path
   id="path244"
   d="M1002.176,297.28c-0.941,1.001-1.41,2.481-1.41,4.44v3.72h9.719v3.601h-9.6V337h-4.26v-27.959h-5.641   v-3.601h5.641v-3.899c0-2.881,0.83-5.16,2.49-6.84c1.66-1.681,4.01-2.521,7.051-2.521c1.199,0,2.359,0.171,3.479,0.51   c1.121,0.341,2.061,0.831,2.82,1.47l-1.439,3.18c-1.24-1.039-2.801-1.56-4.68-1.56   C1004.506,295.78,1003.115,296.281,1002.176,297.28z"
   fill="#4E4E4E" />
	<path
   id="path246"
   d="M1020.385,335.23c-2.439-1.38-4.359-3.289-5.76-5.73c-1.4-2.439-2.1-5.199-2.1-8.279s0.699-5.84,2.1-8.28   c1.4-2.439,3.32-4.34,5.76-5.7c2.439-1.359,5.18-2.039,8.221-2.039c3.039,0,5.779,0.68,8.219,2.039   c2.439,1.36,4.352,3.261,5.73,5.7c1.381,2.44,2.07,5.2,2.07,8.28s-0.689,5.84-2.07,8.279c-1.379,2.441-3.291,4.351-5.73,5.73   s-5.18,2.07-8.219,2.07C1025.564,337.301,1022.824,336.61,1020.385,335.23z M1034.635,331.99c1.779-1.02,3.17-2.469,4.17-4.35   c1-1.88,1.5-4.02,1.5-6.42s-0.5-4.539-1.5-6.42c-1-1.88-2.391-3.33-4.17-4.35c-1.779-1.021-3.789-1.531-6.029-1.531   s-4.25,0.511-6.031,1.531c-1.779,1.02-3.18,2.47-4.199,4.35c-1.02,1.881-1.529,4.02-1.529,6.42s0.51,4.54,1.529,6.42   c1.02,1.881,2.42,3.33,4.199,4.35c1.781,1.02,3.791,1.53,6.031,1.53S1032.855,333.01,1034.635,331.99z"
   fill="#4E4E4E" />
	<path
   id="path248"
   d="M1061.875,306.82c1.98-1.08,4.43-1.619,7.35-1.619v4.139l-1.02-0.06c-3.32,0-5.92,1.021-7.801,3.06   c-1.879,2.041-2.818,4.9-2.818,8.58V337h-4.26v-31.56h4.078v6.181C1058.404,309.501,1059.895,307.9,1061.875,306.82z"
   fill="#4E4E4E" />
	<path
   id="path250"
   d="M533.012,370.84c3.039,2.561,4.56,6.081,4.56,10.561c0,4.48-1.521,7.99-4.56,10.53   c-3.041,2.54-7.24,3.81-12.6,3.81h-11.28V409h-4.44v-42h15.72C525.772,367,529.972,368.281,533.012,370.84z M529.832,389.11   c2.199-1.819,3.3-4.39,3.3-7.71c0-3.399-1.101-6.01-3.3-7.83c-2.2-1.819-5.38-2.73-9.54-2.73h-11.16v21h11.16   C524.452,391.84,527.632,390.932,529.832,389.11z"
   fill="#4E4E4E" />
	<path
   id="path252"
   d="M554.042,378.82c1.98-1.08,4.43-1.619,7.35-1.619v4.139l-1.02-0.06c-3.32,0-5.92,1.021-7.8,3.06   c-1.881,2.041-2.82,4.9-2.82,8.58V409h-4.26v-31.56h4.08v6.181C550.571,381.501,552.062,379.9,554.042,378.82z"
   fill="#4E4E4E" />
	<path
   id="path254"
   d="M573.452,407.23c-2.44-1.38-4.36-3.289-5.76-5.73c-1.4-2.439-2.1-5.199-2.1-8.279s0.7-5.84,2.1-8.28   c1.4-2.439,3.32-4.34,5.76-5.7c2.439-1.359,5.18-2.039,8.22-2.039c3.04,0,5.78,0.68,8.22,2.039c2.439,1.36,4.35,3.261,5.73,5.7   c1.38,2.44,2.07,5.2,2.07,8.28s-0.69,5.84-2.07,8.279c-1.38,2.441-3.291,4.351-5.73,5.73c-2.44,1.38-5.181,2.07-8.22,2.07   C578.631,409.301,575.891,408.61,573.452,407.23z M587.702,403.99c1.779-1.02,3.169-2.469,4.17-4.35c1-1.88,1.5-4.02,1.5-6.42   s-0.5-4.539-1.5-6.42c-1-1.88-2.391-3.33-4.17-4.35c-1.78-1.021-3.791-1.531-6.03-1.531c-2.24,0-4.25,0.511-6.03,1.531   c-1.78,1.02-3.18,2.47-4.2,4.35c-1.02,1.881-1.53,4.02-1.53,6.42s0.51,4.54,1.53,6.42c1.02,1.881,2.42,3.33,4.2,4.35   c1.779,1.02,3.79,1.53,6.03,1.53C583.911,405.521,585.921,405.01,587.702,403.99z"
   fill="#4E4E4E" />
	<path
   id="path256"
   d="M607.501,408.19c-2.34-0.739-4.17-1.669-5.49-2.79l1.92-3.359c1.32,1.04,2.979,1.89,4.98,2.549   c2,0.66,4.08,0.99,6.24,0.99c2.88,0,5.01-0.449,6.39-1.35c1.38-0.9,2.07-2.17,2.07-3.811c0-1.159-0.381-2.069-1.14-2.729   c-0.76-0.66-1.72-1.159-2.88-1.5c-1.161-0.339-2.7-0.669-4.62-0.989c-2.561-0.48-4.62-0.971-6.18-1.471s-2.89-1.35-3.99-2.55   c-1.101-1.2-1.65-2.859-1.65-4.979c0-2.641,1.1-4.801,3.3-6.48c2.199-1.68,5.259-2.52,9.18-2.52c2.04,0,4.08,0.27,6.12,0.809   c2.04,0.541,3.72,1.252,5.04,2.131l-1.86,3.42c-2.601-1.801-5.7-2.7-9.3-2.7c-2.721,0-4.77,0.479-6.15,1.44   c-1.38,0.959-2.07,2.22-2.07,3.779c0,1.2,0.39,2.16,1.17,2.881c0.78,0.72,1.75,1.25,2.91,1.59c1.16,0.34,2.76,0.689,4.8,1.05   c2.52,0.479,4.54,0.96,6.06,1.44c1.52,0.479,2.82,1.3,3.9,2.459c1.08,1.161,1.62,2.76,1.62,4.801c0,2.76-1.15,4.949-3.45,6.57   c-2.301,1.619-5.49,2.43-9.57,2.43C612.292,409.301,609.842,408.932,607.501,408.19z"
   fill="#4E4E4E" />
	<path
   id="path258"
   d="M652.352,407.08c-0.801,0.721-1.791,1.271-2.971,1.65s-2.41,0.57-3.689,0.57c-2.961,0-5.241-0.8-6.84-2.4   c-1.601-1.6-2.4-3.859-2.4-6.779v-19.08h-5.64v-3.601h5.64v-6.899h4.26v6.899h9.599v3.601h-9.599v18.84   c0,1.881,0.47,3.311,1.41,4.289c0.939,0.98,2.289,1.471,4.051,1.471c0.879,0,1.729-0.14,2.549-0.42   c0.82-0.279,1.531-0.68,2.131-1.2L652.352,407.08z"
   fill="#4E4E4E" />
	<path
   id="path260"
   d="M685.621,380.65c2.34,2.301,3.51,5.65,3.51,10.051V409h-4.26v-17.879c0-3.279-0.82-5.78-2.461-7.5   c-1.641-1.721-3.98-2.58-7.02-2.58c-3.4,0-6.09,1.01-8.07,3.029c-1.979,2.021-2.969,4.811-2.969,8.37V409h-4.26v-44.52h4.26v18.48   c1.158-1.84,2.76-3.26,4.799-4.26c2.041-1,4.381-1.5,7.02-1.5C680.131,377.201,683.281,378.351,685.621,380.65z"
   fill="#4E4E4E" />
	<path
   id="path262"
   d="M728.311,394.541h-26.4c0.24,3.279,1.5,5.93,3.779,7.949c2.281,2.021,5.16,3.03,8.641,3.03   c1.959,0,3.76-0.35,5.4-1.05c1.639-0.699,3.061-1.73,4.26-3.09l2.4,2.76c-1.4,1.68-3.15,2.961-5.25,3.84   c-2.1,0.881-4.41,1.32-6.93,1.32c-3.24,0-6.111-0.69-8.611-2.07s-4.449-3.289-5.85-5.73c-1.4-2.439-2.1-5.199-2.1-8.279   s0.67-5.84,2.01-8.28c1.34-2.439,3.18-4.34,5.52-5.7c2.34-1.359,4.971-2.039,7.891-2.039s5.539,0.68,7.859,2.039   c2.32,1.36,4.141,3.25,5.461,5.67c1.32,2.421,1.98,5.19,1.98,8.311L728.311,394.541z M705.42,383.771   c-2.061,1.94-3.23,4.47-3.51,7.59h22.381c-0.281-3.12-1.451-5.649-3.512-7.59s-4.629-2.91-7.709-2.91   C710.029,380.86,707.48,381.83,705.42,383.771z"
   fill="#4E4E4E" />
	<path
   id="path264"
   d="M753.689,407.08c-0.801,0.721-1.791,1.271-2.971,1.65s-2.41,0.57-3.689,0.57c-2.961,0-5.24-0.8-6.84-2.4   c-1.6-1.6-2.4-3.859-2.4-6.779v-19.08h-5.641v-3.601h5.641v-6.899h4.26v6.899h9.6v3.601h-9.6v18.84c0,1.881,0.471,3.311,1.41,4.289   c0.939,0.98,2.289,1.471,4.051,1.471c0.879,0,1.729-0.14,2.549-0.42c0.82-0.279,1.531-0.68,2.131-1.2L753.689,407.08z"
   fill="#4E4E4E" />
	<path
   id="path266"
   d="M761.369,369.641c-0.6-0.6-0.9-1.32-0.9-2.16c0-0.8,0.301-1.5,0.9-2.1c0.6-0.601,1.34-0.9,2.219-0.9   c0.881,0,1.621,0.291,2.221,0.87c0.6,0.58,0.9,1.271,0.9,2.069c0,0.881-0.301,1.621-0.9,2.221s-1.34,0.9-2.221,0.9   C762.709,370.541,761.969,370.24,761.369,369.641z M761.43,377.44h4.26V409h-4.26V377.44z"
   fill="#4E4E4E" />
	<path
   id="path268"
   d="M782.279,407.26c-2.461-1.359-4.391-3.27-5.791-5.729s-2.1-5.229-2.1-8.31s0.699-5.84,2.1-8.28   c1.4-2.439,3.33-4.34,5.791-5.7c2.459-1.359,5.25-2.039,8.369-2.039c2.719,0,5.15,0.529,7.289,1.59   c2.141,1.06,3.83,2.609,5.07,4.649l-3.18,2.16c-1.041-1.56-2.359-2.729-3.959-3.511c-1.602-0.779-3.342-1.17-5.221-1.17   c-2.279,0-4.33,0.511-6.15,1.531c-1.82,1.02-3.24,2.47-4.26,4.35c-1.02,1.881-1.529,4.02-1.529,6.42c0,2.439,0.51,4.59,1.529,6.449   c1.02,1.86,2.439,3.301,4.26,4.32s3.871,1.53,6.15,1.53c1.879,0,3.619-0.38,5.221-1.14c1.6-0.76,2.918-1.92,3.959-3.48l3.18,2.16   c-1.24,2.04-2.939,3.59-5.1,4.65s-4.58,1.59-7.26,1.59C787.529,409.301,784.738,408.621,782.279,407.26z"
   fill="#4E4E4E" />
	<path
   id="path270"
   d="M812.457,408.19c-2.34-0.739-4.17-1.669-5.49-2.79l1.922-3.359c1.318,1.04,2.979,1.89,4.979,2.549   c2,0.66,4.08,0.99,6.24,0.99c2.881,0,5.01-0.449,6.391-1.35c1.379-0.9,2.07-2.17,2.07-3.811c0-1.159-0.381-2.069-1.141-2.729   s-1.721-1.159-2.881-1.5c-1.16-0.339-2.699-0.669-4.619-0.989c-2.561-0.48-4.619-0.971-6.18-1.471s-2.891-1.35-3.99-2.55   c-1.102-1.2-1.65-2.859-1.65-4.979c0-2.641,1.1-4.801,3.301-6.48c2.199-1.68,5.26-2.52,9.18-2.52c2.039,0,4.08,0.27,6.119,0.809   c2.041,0.541,3.721,1.252,5.041,2.131l-1.859,3.42c-2.602-1.801-5.701-2.7-9.301-2.7c-2.721,0-4.77,0.479-6.15,1.44   c-1.379,0.959-2.07,2.22-2.07,3.779c0,1.2,0.391,2.16,1.17,2.881c0.781,0.72,1.75,1.25,2.91,1.59s2.76,0.689,4.801,1.05   c2.52,0.479,4.539,0.96,6.061,1.44c1.52,0.479,2.818,1.3,3.898,2.459c1.08,1.161,1.621,2.76,1.621,4.801   c0,2.76-1.15,4.949-3.451,6.57c-2.301,1.619-5.488,2.43-9.568,2.43C817.248,409.301,814.797,408.932,812.457,408.19z"
   fill="#4E4E4E" />
	<path
   id="path272"
   d="M876.928,380.291c2.199,2.061,3.299,5.109,3.299,9.149V409h-4.08v-4.92   c-0.959,1.641-2.369,2.921-4.229,3.84c-1.861,0.922-4.072,1.381-6.631,1.381c-3.52,0-6.32-0.84-8.4-2.521   c-2.08-1.68-3.119-3.899-3.119-6.659c0-2.68,0.969-4.84,2.91-6.48c1.939-1.64,5.029-2.46,9.27-2.46h10.02v-1.921   c0-2.719-0.76-4.789-2.279-6.209c-1.521-1.42-3.74-2.131-6.66-2.131c-2,0-3.92,0.33-5.76,0.99s-3.42,1.57-4.74,2.73l-1.92-3.18   c1.6-1.359,3.52-2.41,5.76-3.15s4.6-1.109,7.08-1.109C871.566,377.201,874.727,378.23,876.928,380.291z M872.127,404.291   c1.719-1.1,3-2.69,3.84-4.771v-5.16h-9.9c-5.398,0-8.1,1.881-8.1,5.64c0,1.841,0.699,3.291,2.1,4.351s3.361,1.59,5.881,1.59   C868.348,405.94,870.406,405.391,872.127,404.291z"
   fill="#4E4E4E" />
	<path
   id="path274"
   d="M917.338,380.65c2.34,2.301,3.51,5.65,3.51,10.051V409h-4.26v-17.879c0-3.279-0.82-5.78-2.461-7.5   c-1.641-1.721-3.98-2.58-7.02-2.58c-3.4,0-6.09,1.01-8.07,3.029c-1.979,2.021-2.969,4.811-2.969,8.37V409h-4.26v-31.56h4.078v5.819   c1.16-1.92,2.77-3.409,4.83-4.469c2.061-1.061,4.451-1.59,7.17-1.59C911.848,377.201,914.998,378.351,917.338,380.65z"
   fill="#4E4E4E" />
	<path
   id="path276"
   d="M961.346,364.48V409h-4.08v-6.24c-1.281,2.121-2.969,3.741-5.07,4.861c-2.1,1.119-4.469,1.68-7.109,1.68   c-2.961,0-5.641-0.68-8.039-2.041c-2.4-1.359-4.281-3.259-5.641-5.699c-1.361-2.439-2.041-5.221-2.041-8.34   c0-3.12,0.68-5.9,2.041-8.34c1.359-2.439,3.24-4.33,5.641-5.67c2.398-1.34,5.078-2.01,8.039-2.01c2.559,0,4.869,0.529,6.93,1.59   c2.061,1.06,3.75,2.609,5.07,4.649v-18.96H961.346z M951.416,403.99c1.779-1.02,3.18-2.469,4.199-4.35   c1.021-1.88,1.531-4.02,1.531-6.42s-0.51-4.539-1.531-6.42c-1.02-1.88-2.42-3.33-4.199-4.35c-1.781-1.021-3.771-1.531-5.971-1.531   c-2.24,0-4.25,0.511-6.029,1.531c-1.781,1.02-3.18,2.47-4.199,4.35c-1.021,1.881-1.531,4.02-1.531,6.42s0.51,4.54,1.531,6.42   c1.02,1.881,2.418,3.33,4.199,4.35c1.779,1.02,3.789,1.53,6.029,1.53C947.645,405.521,949.635,405.01,951.416,403.99z"
   fill="#4E4E4E" />
	<path
   id="path278"
   d="M996.895,406.57c-3.379-1.859-6.02-4.41-7.92-7.65c-1.9-3.239-2.85-6.879-2.85-10.92   c0-4.039,0.949-7.68,2.85-10.92s4.541-5.789,7.92-7.649c3.381-1.86,7.15-2.79,11.311-2.79s7.91,0.92,11.25,2.76   s5.971,4.391,7.891,7.65s2.879,6.91,2.879,10.949c0,4.041-0.959,7.691-2.879,10.951s-4.551,5.811-7.891,7.649   c-3.34,1.841-7.09,2.76-11.25,2.76S1000.275,408.431,996.895,406.57z M1017.205,403.15c2.68-1.5,4.779-3.579,6.301-6.24   c1.52-2.659,2.279-5.629,2.279-8.91c0-3.279-0.76-6.249-2.279-8.91c-1.521-2.659-3.621-4.739-6.301-6.239s-5.68-2.25-9-2.25   s-6.33,0.75-9.029,2.25c-2.701,1.5-4.82,3.58-6.361,6.239c-1.539,2.661-2.309,5.631-2.309,8.91c0,3.281,0.77,6.251,2.309,8.91   c1.541,2.661,3.66,4.74,6.361,6.24c2.699,1.5,5.709,2.25,9.029,2.25S1014.525,404.65,1017.205,403.15z"
   fill="#4E4E4E" />
	<path
   id="path280"
   d="M1047.836,378.82c1.979-1.08,4.43-1.619,7.35-1.619v4.139l-1.02-0.06c-3.322,0-5.922,1.021-7.801,3.06   c-1.881,2.041-2.82,4.9-2.82,8.58V409h-4.26v-31.56h4.08v6.181C1044.365,381.501,1045.855,379.9,1047.836,378.82z"
   fill="#4E4E4E" />
	<path
   id="path282"
   d="M1080.863,407.08c-0.799,0.721-1.789,1.271-2.969,1.65s-2.41,0.57-3.689,0.57c-2.961,0-5.242-0.8-6.842-2.4   c-1.6-1.6-2.398-3.859-2.398-6.779v-19.08h-5.641v-3.601h5.641v-6.899h4.26v6.899h9.6v3.601h-9.6v18.84   c0,1.881,0.469,3.311,1.41,4.289c0.939,0.98,2.289,1.471,4.049,1.471c0.881,0,1.73-0.14,2.551-0.42   c0.818-0.279,1.529-0.68,2.129-1.2L1080.863,407.08z"
   fill="#4E4E4E" />
	<path
   id="path284"
   d="M1114.133,380.65c2.34,2.301,3.512,5.65,3.512,10.051V409h-4.262v-17.879c0-3.279-0.82-5.78-2.459-7.5   c-1.641-1.721-3.98-2.58-7.02-2.58c-3.4,0-6.09,1.01-8.07,3.029c-1.98,2.021-2.971,4.811-2.971,8.37V409h-4.26v-44.52h4.26v18.48   c1.16-1.84,2.76-3.26,4.801-4.26c2.039-1,4.379-1.5,7.02-1.5C1108.645,377.201,1111.793,378.351,1114.133,380.65z"
   fill="#4E4E4E" />
	<path
   id="path286"
   d="M1134.023,407.23c-2.441-1.38-4.361-3.289-5.76-5.73c-1.402-2.439-2.102-5.199-2.102-8.279   s0.699-5.84,2.102-8.28c1.398-2.439,3.318-4.34,5.76-5.7c2.439-1.359,5.18-2.039,8.219-2.039s5.781,0.68,8.221,2.039   c2.439,1.36,4.35,3.261,5.73,5.7c1.379,2.44,2.07,5.2,2.07,8.28s-0.691,5.84-2.07,8.279c-1.381,2.441-3.291,4.351-5.73,5.73   s-5.182,2.07-8.221,2.07S1136.463,408.61,1134.023,407.23z M1148.273,403.99c1.779-1.02,3.17-2.469,4.17-4.35   c0.998-1.88,1.5-4.02,1.5-6.42s-0.502-4.539-1.5-6.42c-1-1.88-2.391-3.33-4.17-4.35c-1.781-1.021-3.791-1.531-6.031-1.531   s-4.25,0.511-6.029,1.531c-1.781,1.02-3.18,2.47-4.199,4.35c-1.021,1.881-1.531,4.02-1.531,6.42s0.51,4.54,1.531,6.42   c1.02,1.881,2.418,3.33,4.199,4.35c1.779,1.02,3.789,1.53,6.029,1.53S1146.492,405.01,1148.273,403.99z"
   fill="#4E4E4E" />
	<path
   id="path288"
   d="M1183.582,407.08c-0.799,0.721-1.789,1.271-2.969,1.65s-2.41,0.57-3.689,0.57c-2.961,0-5.242-0.8-6.842-2.4   c-1.6-1.6-2.398-3.859-2.398-6.779v-19.08h-5.641v-3.601h5.641v-6.899h4.26v6.899h9.6v3.601h-9.6v18.84   c0,1.881,0.469,3.311,1.41,4.289c0.939,0.98,2.289,1.471,4.049,1.471c0.881,0,1.73-0.14,2.551-0.42   c0.818-0.279,1.529-0.68,2.129-1.2L1183.582,407.08z"
   fill="#4E4E4E" />
	<path
   id="path290"
   d="M1191.262,369.641c-0.6-0.6-0.898-1.32-0.898-2.16c0-0.8,0.299-1.5,0.898-2.1   c0.602-0.601,1.34-0.9,2.221-0.9c0.879,0,1.619,0.291,2.221,0.87c0.6,0.58,0.898,1.271,0.898,2.069   c0,0.881-0.299,1.621-0.898,2.221c-0.602,0.6-1.342,0.9-2.221,0.9C1192.602,370.541,1191.863,370.24,1191.262,369.641z    M1191.322,377.44h4.26V409h-4.26V377.44z"
   fill="#4E4E4E" />
	<path
   id="path292"
   d="M1212.172,407.26c-2.459-1.359-4.391-3.27-5.789-5.729c-1.402-2.46-2.102-5.229-2.102-8.31   s0.699-5.84,2.102-8.28c1.398-2.439,3.33-4.34,5.789-5.7c2.461-1.359,5.25-2.039,8.369-2.039c2.721,0,5.15,0.529,7.291,1.59   c2.139,1.06,3.83,2.609,5.07,4.649l-3.18,2.16c-1.041-1.56-2.361-2.729-3.961-3.511c-1.6-0.779-3.34-1.17-5.221-1.17   c-2.279,0-4.33,0.511-6.148,1.531c-1.82,1.02-3.24,2.47-4.26,4.35c-1.021,1.881-1.531,4.02-1.531,6.42   c0,2.439,0.51,4.59,1.531,6.449c1.02,1.86,2.439,3.301,4.26,4.32c1.818,1.02,3.869,1.53,6.148,1.53c1.881,0,3.621-0.38,5.221-1.14   s2.92-1.92,3.961-3.48l3.18,2.16c-1.24,2.04-2.939,3.59-5.1,4.65s-4.582,1.59-7.262,1.59   C1217.422,409.301,1214.633,408.621,1212.172,407.26z"
   fill="#4E4E4E" />
	<path
   id="path294"
   d="M1242.352,408.19c-2.34-0.739-4.17-1.669-5.49-2.79l1.92-3.359c1.32,1.04,2.979,1.89,4.98,2.549   c2,0.66,4.08,0.99,6.24,0.99c2.879,0,5.01-0.449,6.389-1.35c1.381-0.9,2.07-2.17,2.07-3.811c0-1.159-0.381-2.069-1.141-2.729   s-1.719-1.159-2.879-1.5c-1.16-0.339-2.699-0.669-4.621-0.989c-2.559-0.48-4.619-0.971-6.18-1.471c-1.559-0.5-2.891-1.35-3.99-2.55   s-1.648-2.859-1.648-4.979c0-2.641,1.1-4.801,3.299-6.48s5.26-2.52,9.18-2.52c2.041,0,4.08,0.27,6.121,0.809   c2.039,0.541,3.719,1.252,5.039,2.131l-1.859,3.42c-2.602-1.801-5.699-2.7-9.301-2.7c-2.721,0-4.77,0.479-6.148,1.44   c-1.381,0.959-2.07,2.22-2.07,3.779c0,1.2,0.389,2.16,1.17,2.881c0.779,0.72,1.748,1.25,2.91,1.59   c1.158,0.34,2.76,0.689,4.799,1.05c2.521,0.479,4.539,0.96,6.061,1.44c1.52,0.479,2.82,1.3,3.9,2.459   c1.08,1.161,1.619,2.76,1.619,4.801c0,2.76-1.15,4.949-3.449,6.57c-2.301,1.619-5.49,2.43-9.57,2.43   C1247.141,409.301,1244.691,408.932,1242.352,408.19z"
   fill="#4E4E4E" />
</g>
</svg>